<svg xmlns="http://www.w3.org/2000/svg" xmlns:xlink="http://www.w3.org/1999/xlink" width="500" zoomAndPan="magnify" viewBox="0 0 375 374.999991" height="500" preserveAspectRatio="xMidYMid meet" version="1.0"><defs><g/><linearGradient x1="0" gradientTransform="matrix(0.75, 0, 0, 0.75, 0.0000045, 0)" y1="250" x2="499.999979" gradientUnits="userSpaceOnUse" y2="250" id="775ec0e14a"><stop stop-opacity="1" stop-color="rgb(0%, 0%, 0%)" offset="0"/><stop stop-opacity="1" stop-color="rgb(0.175476%, 0.175476%, 0.175476%)" offset="0.0078125"/><stop stop-opacity="1" stop-color="rgb(0.526428%, 0.526428%, 0.526428%)" offset="0.015625"/><stop stop-opacity="1" stop-color="rgb(0.878906%, 0.878906%, 0.878906%)" offset="0.0234375"/><stop stop-opacity="1" stop-color="rgb(1.231384%, 1.231384%, 1.231384%)" offset="0.03125"/><stop stop-opacity="1" stop-color="rgb(1.583862%, 1.583862%, 1.583862%)" offset="0.0390625"/><stop stop-opacity="1" stop-color="rgb(1.93634%, 1.93634%, 1.93634%)" offset="0.046875"/><stop stop-opacity="1" stop-color="rgb(2.288818%, 2.288818%, 2.288818%)" offset="0.0546875"/><stop stop-opacity="1" stop-color="rgb(2.641296%, 2.641296%, 2.641296%)" offset="0.0625"/><stop stop-opacity="1" stop-color="rgb(2.993774%, 2.993774%, 2.993774%)" offset="0.0703125"/><stop stop-opacity="1" stop-color="rgb(3.346252%, 3.346252%, 3.346252%)" offset="0.078125"/><stop stop-opacity="1" stop-color="rgb(3.69873%, 3.69873%, 3.69873%)" offset="0.0859375"/><stop stop-opacity="1" stop-color="rgb(4.051208%, 4.051208%, 4.051208%)" offset="0.09375"/><stop stop-opacity="1" stop-color="rgb(4.402161%, 4.402161%, 4.402161%)" offset="0.101562"/><stop stop-opacity="1" stop-color="rgb(4.754639%, 4.754639%, 4.754639%)" offset="0.109375"/><stop stop-opacity="1" stop-color="rgb(5.107117%, 5.107117%, 5.107117%)" offset="0.117188"/><stop stop-opacity="1" stop-color="rgb(5.459595%, 5.459595%, 5.459595%)" offset="0.125"/><stop stop-opacity="1" stop-color="rgb(5.812073%, 5.812073%, 5.812073%)" offset="0.132812"/><stop stop-opacity="1" stop-color="rgb(6.164551%, 6.164551%, 6.164551%)" offset="0.140625"/><stop stop-opacity="1" stop-color="rgb(6.517029%, 6.517029%, 6.517029%)" offset="0.148437"/><stop stop-opacity="1" stop-color="rgb(6.869507%, 6.869507%, 6.869507%)" offset="0.15625"/><stop stop-opacity="1" stop-color="rgb(7.221985%, 7.221985%, 7.221985%)" offset="0.164062"/><stop stop-opacity="1" stop-color="rgb(7.574463%, 7.574463%, 7.574463%)" offset="0.171875"/><stop stop-opacity="1" stop-color="rgb(7.926941%, 7.926941%, 7.926941%)" offset="0.179687"/><stop stop-opacity="1" stop-color="rgb(8.277893%, 8.277893%, 8.277893%)" offset="0.1875"/><stop stop-opacity="1" stop-color="rgb(8.630371%, 8.630371%, 8.630371%)" offset="0.195312"/><stop stop-opacity="1" stop-color="rgb(8.982849%, 8.982849%, 8.982849%)" offset="0.203125"/><stop stop-opacity="1" stop-color="rgb(9.335327%, 9.335327%, 9.335327%)" offset="0.210938"/><stop stop-opacity="1" stop-color="rgb(9.687805%, 9.687805%, 9.687805%)" offset="0.21875"/><stop stop-opacity="1" stop-color="rgb(10.040283%, 10.040283%, 10.040283%)" offset="0.226562"/><stop stop-opacity="1" stop-color="rgb(10.392761%, 10.392761%, 10.392761%)" offset="0.234375"/><stop stop-opacity="1" stop-color="rgb(10.745239%, 10.745239%, 10.745239%)" offset="0.242188"/><stop stop-opacity="1" stop-color="rgb(11.097717%, 11.097717%, 11.097717%)" offset="0.25"/><stop stop-opacity="1" stop-color="rgb(11.450195%, 11.450195%, 11.450195%)" offset="0.257812"/><stop stop-opacity="1" stop-color="rgb(11.802673%, 11.802673%, 11.802673%)" offset="0.265625"/><stop stop-opacity="1" stop-color="rgb(12.155151%, 12.155151%, 12.155151%)" offset="0.273437"/><stop stop-opacity="1" stop-color="rgb(12.506104%, 12.506104%, 12.506104%)" offset="0.28125"/><stop stop-opacity="1" stop-color="rgb(12.858582%, 12.858582%, 12.858582%)" offset="0.289062"/><stop stop-opacity="1" stop-color="rgb(13.21106%, 13.21106%, 13.21106%)" offset="0.296875"/><stop stop-opacity="1" stop-color="rgb(13.563538%, 13.563538%, 13.563538%)" offset="0.304687"/><stop stop-opacity="1" stop-color="rgb(13.916016%, 13.916016%, 13.916016%)" offset="0.3125"/><stop stop-opacity="1" stop-color="rgb(14.268494%, 14.268494%, 14.268494%)" offset="0.320312"/><stop stop-opacity="1" stop-color="rgb(14.620972%, 14.620972%, 14.620972%)" offset="0.328125"/><stop stop-opacity="1" stop-color="rgb(14.97345%, 14.97345%, 14.97345%)" offset="0.335937"/><stop stop-opacity="1" stop-color="rgb(15.325928%, 15.325928%, 15.325928%)" offset="0.34375"/><stop stop-opacity="1" stop-color="rgb(15.678406%, 15.678406%, 15.678406%)" offset="0.351562"/><stop stop-opacity="1" stop-color="rgb(16.030884%, 16.030884%, 16.030884%)" offset="0.359375"/><stop stop-opacity="1" stop-color="rgb(16.381836%, 16.381836%, 16.381836%)" offset="0.367187"/><stop stop-opacity="1" stop-color="rgb(16.734314%, 16.734314%, 16.734314%)" offset="0.375"/><stop stop-opacity="1" stop-color="rgb(17.086792%, 17.086792%, 17.086792%)" offset="0.382812"/><stop stop-opacity="1" stop-color="rgb(17.43927%, 17.43927%, 17.43927%)" offset="0.390625"/><stop stop-opacity="1" stop-color="rgb(17.791748%, 17.791748%, 17.791748%)" offset="0.398438"/><stop stop-opacity="1" stop-color="rgb(18.144226%, 18.144226%, 18.144226%)" offset="0.40625"/><stop stop-opacity="1" stop-color="rgb(18.496704%, 18.496704%, 18.496704%)" offset="0.414062"/><stop stop-opacity="1" stop-color="rgb(18.849182%, 18.849182%, 18.849182%)" offset="0.421875"/><stop stop-opacity="1" stop-color="rgb(19.20166%, 19.20166%, 19.20166%)" offset="0.429688"/><stop stop-opacity="1" stop-color="rgb(19.554138%, 19.554138%, 19.554138%)" offset="0.4375"/><stop stop-opacity="1" stop-color="rgb(19.906616%, 19.906616%, 19.906616%)" offset="0.445312"/><stop stop-opacity="1" stop-color="rgb(20.257568%, 20.257568%, 20.257568%)" offset="0.453125"/><stop stop-opacity="1" stop-color="rgb(20.610046%, 20.610046%, 20.610046%)" offset="0.460938"/><stop stop-opacity="1" stop-color="rgb(20.962524%, 20.962524%, 20.962524%)" offset="0.46875"/><stop stop-opacity="1" stop-color="rgb(21.315002%, 21.315002%, 21.315002%)" offset="0.476562"/><stop stop-opacity="1" stop-color="rgb(21.66748%, 21.66748%, 21.66748%)" offset="0.484375"/><stop stop-opacity="1" stop-color="rgb(22.019958%, 22.019958%, 22.019958%)" offset="0.492188"/><stop stop-opacity="1" stop-color="rgb(22.372437%, 22.372437%, 22.372437%)" offset="0.5"/><stop stop-opacity="1" stop-color="rgb(22.724915%, 22.724915%, 22.724915%)" offset="0.507812"/><stop stop-opacity="1" stop-color="rgb(23.077393%, 23.077393%, 23.077393%)" offset="0.515625"/><stop stop-opacity="1" stop-color="rgb(23.429871%, 23.429871%, 23.429871%)" offset="0.523437"/><stop stop-opacity="1" stop-color="rgb(23.782349%, 23.782349%, 23.782349%)" offset="0.53125"/><stop stop-opacity="1" stop-color="rgb(24.134827%, 24.134827%, 24.134827%)" offset="0.539062"/><stop stop-opacity="1" stop-color="rgb(24.485779%, 24.485779%, 24.485779%)" offset="0.546875"/><stop stop-opacity="1" stop-color="rgb(24.838257%, 24.838257%, 24.838257%)" offset="0.554687"/><stop stop-opacity="1" stop-color="rgb(25.190735%, 25.190735%, 25.190735%)" offset="0.5625"/><stop stop-opacity="1" stop-color="rgb(25.543213%, 25.543213%, 25.543213%)" offset="0.570312"/><stop stop-opacity="1" stop-color="rgb(25.895691%, 25.895691%, 25.895691%)" offset="0.578125"/><stop stop-opacity="1" stop-color="rgb(26.248169%, 26.248169%, 26.248169%)" offset="0.585937"/><stop stop-opacity="1" stop-color="rgb(26.600647%, 26.600647%, 26.600647%)" offset="0.59375"/><stop stop-opacity="1" stop-color="rgb(26.953125%, 26.953125%, 26.953125%)" offset="0.601562"/><stop stop-opacity="1" stop-color="rgb(27.305603%, 27.305603%, 27.305603%)" offset="0.609375"/><stop stop-opacity="1" stop-color="rgb(27.658081%, 27.658081%, 27.658081%)" offset="0.617187"/><stop stop-opacity="1" stop-color="rgb(28.010559%, 28.010559%, 28.010559%)" offset="0.625"/><stop stop-opacity="1" stop-color="rgb(28.361511%, 28.361511%, 28.361511%)" offset="0.632812"/><stop stop-opacity="1" stop-color="rgb(28.713989%, 28.713989%, 28.713989%)" offset="0.640625"/><stop stop-opacity="1" stop-color="rgb(29.066467%, 29.066467%, 29.066467%)" offset="0.648437"/><stop stop-opacity="1" stop-color="rgb(29.418945%, 29.418945%, 29.418945%)" offset="0.65625"/><stop stop-opacity="1" stop-color="rgb(29.771423%, 29.771423%, 29.771423%)" offset="0.664062"/><stop stop-opacity="1" stop-color="rgb(30.123901%, 30.123901%, 30.123901%)" offset="0.671875"/><stop stop-opacity="1" stop-color="rgb(30.476379%, 30.476379%, 30.476379%)" offset="0.679687"/><stop stop-opacity="1" stop-color="rgb(30.828857%, 30.828857%, 30.828857%)" offset="0.6875"/><stop stop-opacity="1" stop-color="rgb(31.181335%, 31.181335%, 31.181335%)" offset="0.695312"/><stop stop-opacity="1" stop-color="rgb(31.533813%, 31.533813%, 31.533813%)" offset="0.703125"/><stop stop-opacity="1" stop-color="rgb(31.886292%, 31.886292%, 31.886292%)" offset="0.710937"/><stop stop-opacity="1" stop-color="rgb(32.237244%, 32.237244%, 32.237244%)" offset="0.71875"/><stop stop-opacity="1" stop-color="rgb(32.589722%, 32.589722%, 32.589722%)" offset="0.726562"/><stop stop-opacity="1" stop-color="rgb(32.9422%, 32.9422%, 32.9422%)" offset="0.734375"/><stop stop-opacity="1" stop-color="rgb(33.294678%, 33.294678%, 33.294678%)" offset="0.742187"/><stop stop-opacity="1" stop-color="rgb(33.647156%, 33.647156%, 33.647156%)" offset="0.75"/><stop stop-opacity="1" stop-color="rgb(33.999634%, 33.999634%, 33.999634%)" offset="0.757812"/><stop stop-opacity="1" stop-color="rgb(34.352112%, 34.352112%, 34.352112%)" offset="0.765625"/><stop stop-opacity="1" stop-color="rgb(34.70459%, 34.70459%, 34.70459%)" offset="0.773438"/><stop stop-opacity="1" stop-color="rgb(35.057068%, 35.057068%, 35.057068%)" offset="0.78125"/><stop stop-opacity="1" stop-color="rgb(35.409546%, 35.409546%, 35.409546%)" offset="0.789062"/><stop stop-opacity="1" stop-color="rgb(35.762024%, 35.762024%, 35.762024%)" offset="0.796875"/><stop stop-opacity="1" stop-color="rgb(36.114502%, 36.114502%, 36.114502%)" offset="0.804688"/><stop stop-opacity="1" stop-color="rgb(36.465454%, 36.465454%, 36.465454%)" offset="0.8125"/><stop stop-opacity="1" stop-color="rgb(36.817932%, 36.817932%, 36.817932%)" offset="0.820312"/><stop stop-opacity="1" stop-color="rgb(37.17041%, 37.17041%, 37.17041%)" offset="0.828125"/><stop stop-opacity="1" stop-color="rgb(37.522888%, 37.522888%, 37.522888%)" offset="0.835938"/><stop stop-opacity="1" stop-color="rgb(37.875366%, 37.875366%, 37.875366%)" offset="0.84375"/><stop stop-opacity="1" stop-color="rgb(38.227844%, 38.227844%, 38.227844%)" offset="0.851562"/><stop stop-opacity="1" stop-color="rgb(38.580322%, 38.580322%, 38.580322%)" offset="0.859375"/><stop stop-opacity="1" stop-color="rgb(38.9328%, 38.9328%, 38.9328%)" offset="0.867188"/><stop stop-opacity="1" stop-color="rgb(39.285278%, 39.285278%, 39.285278%)" offset="0.875"/><stop stop-opacity="1" stop-color="rgb(39.637756%, 39.637756%, 39.637756%)" offset="0.882812"/><stop stop-opacity="1" stop-color="rgb(39.990234%, 39.990234%, 39.990234%)" offset="0.890625"/><stop stop-opacity="1" stop-color="rgb(40.341187%, 40.341187%, 40.341187%)" offset="0.898438"/><stop stop-opacity="1" stop-color="rgb(40.693665%, 40.693665%, 40.693665%)" offset="0.90625"/><stop stop-opacity="1" stop-color="rgb(41.046143%, 41.046143%, 41.046143%)" offset="0.914062"/><stop stop-opacity="1" stop-color="rgb(41.398621%, 41.398621%, 41.398621%)" offset="0.921875"/><stop stop-opacity="1" stop-color="rgb(41.751099%, 41.751099%, 41.751099%)" offset="0.929688"/><stop stop-opacity="1" stop-color="rgb(42.103577%, 42.103577%, 42.103577%)" offset="0.9375"/><stop stop-opacity="1" stop-color="rgb(42.456055%, 42.456055%, 42.456055%)" offset="0.945312"/><stop stop-opacity="1" stop-color="rgb(42.808533%, 42.808533%, 42.808533%)" offset="0.953125"/><stop stop-opacity="1" stop-color="rgb(43.161011%, 43.161011%, 43.161011%)" offset="0.960938"/><stop stop-opacity="1" stop-color="rgb(43.513489%, 43.513489%, 43.513489%)" offset="0.96875"/><stop stop-opacity="1" stop-color="rgb(43.865967%, 43.865967%, 43.865967%)" offset="0.976562"/><stop stop-opacity="1" stop-color="rgb(44.216919%, 44.216919%, 44.216919%)" offset="0.984375"/><stop stop-opacity="1" stop-color="rgb(44.569397%, 44.569397%, 44.569397%)" offset="0.992188"/><stop stop-opacity="1" stop-color="rgb(44.921875%, 44.921875%, 44.921875%)" offset="1"/></linearGradient><clipPath id="d3fa35dc2d"><path d="M 69.828125 69.828125 L 305.164062 69.828125 L 305.164062 305.164062 L 69.828125 305.164062 Z M 69.828125 69.828125 " clip-rule="nonzero"/></clipPath><clipPath id="ee631e422b"><path d="M 187.496094 69.828125 C 122.507812 69.828125 69.828125 122.507812 69.828125 187.496094 C 69.828125 252.480469 122.507812 305.164062 187.496094 305.164062 C 252.480469 305.164062 305.164062 252.480469 305.164062 187.496094 C 305.164062 122.507812 252.480469 69.828125 187.496094 69.828125 Z M 187.496094 69.828125 " clip-rule="nonzero"/></clipPath><clipPath id="4c8c12dbd5"><path d="M 271.722656 182.25 L 282.222656 182.25 L 282.222656 192.75 L 271.722656 192.75 Z M 271.722656 182.25 " clip-rule="nonzero"/></clipPath><clipPath id="f722283b27"><path d="M 276.972656 182.25 C 274.074219 182.25 271.722656 184.601562 271.722656 187.5 C 271.722656 190.398438 274.074219 192.75 276.972656 192.75 C 279.871094 192.75 282.222656 190.398438 282.222656 187.5 C 282.222656 184.601562 279.871094 182.25 276.972656 182.25 Z M 276.972656 182.25 " clip-rule="nonzero"/></clipPath><clipPath id="cbd6078d2f"><path d="M 92.777344 182.25 L 103.277344 182.25 L 103.277344 192.75 L 92.777344 192.75 Z M 92.777344 182.25 " clip-rule="nonzero"/></clipPath><clipPath id="da19e27cea"><path d="M 98.027344 182.25 C 95.128906 182.25 92.777344 184.601562 92.777344 187.5 C 92.777344 190.398438 95.128906 192.75 98.027344 192.75 C 100.925781 192.75 103.277344 190.398438 103.277344 187.5 C 103.277344 184.601562 100.925781 182.25 98.027344 182.25 Z M 98.027344 182.25 " clip-rule="nonzero"/></clipPath></defs><rect x="-37.5" width="450" fill="#ffffff" y="-37.499999" height="449.999989" fill-opacity="1"/><rect x="-37.5" fill="url(#775ec0e14a)" width="450" y="-37.499999" height="449.999989"/><g clip-path="url(#d3fa35dc2d)"><g clip-path="url(#ee631e422b)"><path stroke-linecap="butt" transform="matrix(0.75, 0, 0, 0.75, 69.827995, 69.827983)" fill="none" stroke-linejoin="miter" d="M 156.890808 0.000188781 C 70.239761 0.000188781 0.000173181 70.239777 0.000173181 156.890824 C 0.000173181 243.536663 70.239761 313.781459 156.890808 313.781459 C 243.536648 313.781459 313.781444 243.536663 313.781444 156.890824 C 313.781444 70.239777 243.536648 0.000188781 156.890808 0.000188781 Z M 156.890808 0.000188781 " stroke="#eff9ff" stroke-width="12" stroke-opacity="1" stroke-miterlimit="4"/></g></g><path stroke-linecap="round" transform="matrix(0, -0.75, 0.75, 0, 185.622151, 237.226684)" fill="none" stroke-linejoin="miter" d="M 2.500162 2.498591 L 139.474129 2.498591 " stroke="#eff9ff" stroke-width="5" stroke-opacity="1" stroke-miterlimit="4"/><g clip-path="url(#4c8c12dbd5)"><g clip-path="url(#f722283b27)"><path fill="#eff9ff" d="M 271.722656 182.25 L 282.222656 182.25 L 282.222656 192.75 L 271.722656 192.75 Z M 271.722656 182.25 " fill-opacity="1" fill-rule="nonzero"/></g></g><g clip-path="url(#cbd6078d2f)"><g clip-path="url(#da19e27cea)"><path fill="#eff9ff" d="M 92.777344 182.25 L 103.277344 182.25 L 103.277344 192.75 L 92.777344 192.75 Z M 92.777344 182.25 " fill-opacity="1" fill-rule="nonzero"/></g></g><g fill="#eff9ff" fill-opacity="1"><g transform="translate(112.951821, 215.624986)"><g><path d="M 3.0625 0 L 3.0625 -1.890625 L 9.515625 -2.296875 L 9.515625 -57.46875 L 3.0625 -57.890625 L 3.0625 -59.765625 L 26.6875 -59.765625 L 26.6875 -57.890625 L 20.234375 -57.46875 L 20.234375 -31.921875 L 42.765625 -32.25 L 42.765625 -57.46875 L 36.3125 -57.890625 L 36.3125 -59.765625 L 59.9375 -59.765625 L 59.9375 -57.890625 L 53.484375 -57.46875 L 53.484375 -2.296875 L 59.9375 -1.890625 L 59.9375 0 L 36.3125 0 L 36.3125 -1.890625 L 42.765625 -2.296875 L 42.765625 -29.40625 L 20.234375 -29.40625 L 20.234375 -2.296875 L 26.6875 -1.890625 L 26.6875 0 Z M 3.0625 0 "/></g></g></g><g fill="#eff9ff" fill-opacity="1"><g transform="translate(203.460929, 215.624986)"><g><path d="M 3.0625 0 L 3.0625 -1.890625 L 9.515625 -2.296875 L 9.515625 -57.46875 L 3.0625 -57.890625 L 3.0625 -59.765625 L 25.46875 -59.765625 C 27.863281 -59.765625 30.046875 -59.648438 32.015625 -59.421875 C 33.984375 -59.203125 35.929688 -58.789062 37.859375 -58.1875 C 39.785156 -57.59375 41.398438 -56.804688 42.703125 -55.828125 C 44.003906 -54.859375 45.050781 -53.566406 45.84375 -51.953125 C 46.632812 -50.347656 47.03125 -48.472656 47.03125 -46.328125 C 47.03125 -44.617188 46.65625 -43.046875 45.90625 -41.609375 C 45.15625 -40.171875 44.195312 -38.976562 43.03125 -38.03125 C 41.875 -37.082031 40.523438 -36.238281 38.984375 -35.5 C 37.453125 -34.757812 35.972656 -34.191406 34.546875 -33.796875 C 33.128906 -33.410156 31.707031 -33.117188 30.28125 -32.921875 L 30.28125 -32.75 C 33.101562 -32.75 35.703125 -32.421875 38.078125 -31.765625 C 40.453125 -31.109375 42.523438 -30.140625 44.296875 -28.859375 C 46.066406 -27.578125 47.453125 -25.894531 48.453125 -23.8125 C 49.460938 -21.726562 49.96875 -19.363281 49.96875 -16.71875 C 49.96875 -14.3125 49.535156 -12.148438 48.671875 -10.234375 C 47.804688 -8.328125 46.644531 -6.742188 45.1875 -5.484375 C 43.738281 -4.234375 42.03125 -3.1875 40.0625 -2.34375 C 38.09375 -1.507812 36.046875 -0.910156 33.921875 -0.546875 C 31.804688 -0.179688 29.585938 0 27.265625 0 Z M 20.234375 -2.71875 C 21.742188 -2.4375 23.195312 -2.296875 24.59375 -2.296875 C 29.03125 -2.296875 32.507812 -3.582031 35.03125 -6.15625 C 37.5625 -8.726562 38.828125 -12.21875 38.828125 -16.625 C 38.828125 -21.34375 37.519531 -24.953125 34.90625 -27.453125 C 32.300781 -29.953125 28.691406 -31.203125 24.078125 -31.203125 C 22.765625 -31.203125 21.484375 -31.101562 20.234375 -30.90625 Z M 20.234375 -33.765625 C 21.398438 -33.597656 22.472656 -33.515625 23.453125 -33.515625 C 31.910156 -33.515625 36.140625 -37.703125 36.140625 -46.078125 C 36.140625 -49.648438 35.191406 -52.441406 33.296875 -54.453125 C 31.398438 -56.460938 28.5 -57.46875 24.59375 -57.46875 C 23.195312 -57.46875 21.742188 -57.328125 20.234375 -57.046875 Z M 20.234375 -33.765625 "/></g></g></g><g fill="#eff9ff" fill-opacity="1"><g transform="translate(125.135893, 256.891481)"><g><path d="M 6.34375 -2.921875 L 6.28125 -2.96875 L 5.890625 -2.375 L 2.421875 1.953125 L 0.703125 0.5625 L 5.96875 -5.984375 L 8.390625 -4.03125 L 6.421875 2.203125 L 6.46875 2.25 L 12.140625 -1.015625 L 14.578125 0.9375 L 9.3125 7.484375 L 7.59375 6.109375 L 11.0625 1.78125 L 11.578125 1.28125 L 11.515625 1.234375 L 5.625 4.53125 L 4.390625 3.53125 Z M 6.34375 -2.921875 "/></g></g></g><g fill="#eff9ff" fill-opacity="1"><g transform="translate(139.060048, 267.400016)"><g><path d="M 6.796875 0.171875 L 7.1875 -3.203125 L 4.546875 -1.078125 Z M 1.921875 1.0625 L -0.09375 -0.046875 L 7.265625 -5.59375 L 9.15625 -4.53125 L 8.390625 4.640625 L 6.390625 3.53125 L 6.578125 1.6875 L 3.390625 -0.0625 Z M 1.921875 1.0625 "/></g></g></g><g fill="#eff9ff" fill-opacity="1"><g transform="translate(151.456964, 273.874899)"><g><path d="M 4.53125 -3.328125 L 6.734375 -2.515625 C 6.898438 -2.453125 7.085938 -2.394531 7.296875 -2.34375 C 7.515625 -2.300781 7.722656 -2.332031 7.921875 -2.4375 C 8.003906 -2.46875 8.09375 -2.53125 8.1875 -2.625 C 8.289062 -2.71875 8.375 -2.847656 8.4375 -3.015625 C 8.507812 -3.210938 8.523438 -3.382812 8.484375 -3.53125 C 8.441406 -3.6875 8.394531 -3.820312 8.34375 -3.9375 C 8.289062 -3.976562 8.222656 -4.023438 8.140625 -4.078125 C 8.054688 -4.140625 7.96875 -4.191406 7.875 -4.234375 C 7.78125 -4.285156 7.691406 -4.328125 7.609375 -4.359375 C 7.535156 -4.398438 7.46875 -4.429688 7.40625 -4.453125 L 5.234375 -5.25 Z M 3.734375 -7.578125 L 8.40625 -5.875 C 8.601562 -5.800781 8.8125 -5.710938 9.03125 -5.609375 C 9.25 -5.515625 9.460938 -5.398438 9.671875 -5.265625 C 9.878906 -5.140625 10.078125 -4.988281 10.265625 -4.8125 C 10.453125 -4.644531 10.597656 -4.445312 10.703125 -4.21875 C 10.847656 -3.90625 10.898438 -3.597656 10.859375 -3.296875 C 10.816406 -2.992188 10.757812 -2.734375 10.6875 -2.515625 C 10.59375 -2.253906 10.460938 -2.019531 10.296875 -1.8125 C 10.128906 -1.613281 9.914062 -1.453125 9.65625 -1.328125 C 9.46875 -1.234375 9.269531 -1.171875 9.0625 -1.140625 C 8.851562 -1.117188 8.644531 -1.125 8.4375 -1.15625 L 8.421875 -1.109375 C 8.578125 -1.015625 8.722656 -0.894531 8.859375 -0.75 C 9.003906 -0.613281 9.109375 -0.460938 9.171875 -0.296875 C 9.222656 -0.160156 9.257812 -0.0351562 9.28125 0.078125 C 9.300781 0.191406 9.300781 0.304688 9.28125 0.421875 C 9.269531 0.535156 9.242188 0.644531 9.203125 0.75 C 9.171875 0.851562 9.144531 0.953125 9.125 1.046875 L 8.859375 1.96875 C 8.816406 2.15625 8.78125 2.34375 8.75 2.53125 C 8.71875 2.71875 8.726562 2.941406 8.78125 3.203125 L 6.59375 2.40625 C 6.519531 2.175781 6.492188 1.984375 6.515625 1.828125 C 6.535156 1.671875 6.578125 1.492188 6.640625 1.296875 L 6.84375 0.625 C 6.914062 0.382812 6.945312 0.171875 6.9375 -0.015625 C 6.925781 -0.203125 6.890625 -0.351562 6.828125 -0.46875 C 6.753906 -0.601562 6.628906 -0.726562 6.453125 -0.84375 C 6.273438 -0.957031 6.097656 -1.046875 5.921875 -1.109375 L 3.984375 -1.828125 L 2.921875 1.0625 L 0.84375 0.3125 Z M 3.734375 -7.578125 "/></g></g></g><g fill="#eff9ff" fill-opacity="1"><g transform="translate(165.089904, 278.575416)"><g><path d="M 4.15625 -5.609375 L 4.078125 -5.625 L 4.03125 -4.90625 L 3.0625 0.546875 L 0.890625 0.15625 L 2.359375 -8.125 L 5.421875 -7.578125 L 6.703125 -1.140625 L 6.765625 -1.140625 L 10.15625 -6.734375 L 13.234375 -6.1875 L 11.765625 2.09375 L 9.59375 1.703125 L 10.5625 -3.75 L 10.765625 -4.4375 L 10.6875 -4.453125 L 7.109375 1.265625 L 5.53125 0.984375 Z M 4.15625 -5.609375 "/></g></g></g><g fill="#eff9ff" fill-opacity="1"><g transform="translate(182.37235, 281.147873)"><g><path d="M 5.46875 -6.984375 C 5.1875 -6.972656 4.882812 -6.929688 4.5625 -6.859375 C 4.238281 -6.785156 3.929688 -6.609375 3.640625 -6.328125 C 3.460938 -6.160156 3.320312 -5.976562 3.21875 -5.78125 C 3.125 -5.582031 3.050781 -5.382812 3 -5.1875 C 2.957031 -5 2.925781 -4.816406 2.90625 -4.640625 C 2.894531 -4.472656 2.890625 -4.332031 2.890625 -4.21875 C 2.890625 -4.09375 2.894531 -3.941406 2.90625 -3.765625 C 2.925781 -3.597656 2.960938 -3.414062 3.015625 -3.21875 C 3.066406 -3.03125 3.140625 -2.835938 3.234375 -2.640625 C 3.335938 -2.453125 3.476562 -2.273438 3.65625 -2.109375 C 3.957031 -1.828125 4.269531 -1.644531 4.59375 -1.5625 C 4.914062 -1.488281 5.21875 -1.457031 5.5 -1.46875 C 5.78125 -1.46875 6.082031 -1.503906 6.40625 -1.578125 C 6.726562 -1.660156 7.023438 -1.84375 7.296875 -2.125 C 7.472656 -2.289062 7.613281 -2.46875 7.71875 -2.65625 C 7.820312 -2.851562 7.898438 -3.046875 7.953125 -3.234375 C 8.003906 -3.429688 8.035156 -3.613281 8.046875 -3.78125 C 8.066406 -3.957031 8.078125 -4.109375 8.078125 -4.234375 C 8.078125 -4.347656 8.066406 -4.488281 8.046875 -4.65625 C 8.035156 -4.832031 8 -5.015625 7.9375 -5.203125 C 7.882812 -5.398438 7.804688 -5.597656 7.703125 -5.796875 C 7.597656 -5.992188 7.457031 -6.175781 7.28125 -6.34375 C 7 -6.625 6.695312 -6.800781 6.375 -6.875 C 6.050781 -6.945312 5.75 -6.984375 5.46875 -6.984375 Z M 10.46875 -4.25 C 10.46875 -4 10.453125 -3.738281 10.421875 -3.46875 C 10.390625 -3.195312 10.328125 -2.921875 10.234375 -2.640625 C 10.140625 -2.367188 10.007812 -2.09375 9.84375 -1.8125 C 9.675781 -1.539062 9.453125 -1.28125 9.171875 -1.03125 C 9.003906 -0.882812 8.8125 -0.738281 8.59375 -0.59375 C 8.375 -0.445312 8.113281 -0.3125 7.8125 -0.1875 C 7.519531 -0.0703125 7.179688 0.0195312 6.796875 0.09375 C 6.410156 0.164062 5.976562 0.203125 5.5 0.203125 C 5.019531 0.210938 4.585938 0.179688 4.203125 0.109375 C 3.816406 0.0351562 3.472656 -0.0546875 3.171875 -0.171875 C 2.867188 -0.296875 2.609375 -0.425781 2.390625 -0.5625 C 2.171875 -0.707031 1.984375 -0.851562 1.828125 -1 C 1.546875 -1.238281 1.316406 -1.492188 1.140625 -1.765625 C 0.960938 -2.046875 0.820312 -2.320312 0.71875 -2.59375 C 0.625 -2.875 0.5625 -3.148438 0.53125 -3.421875 C 0.5 -3.691406 0.484375 -3.953125 0.484375 -4.203125 C 0.484375 -4.453125 0.492188 -4.710938 0.515625 -4.984375 C 0.546875 -5.253906 0.609375 -5.523438 0.703125 -5.796875 C 0.804688 -6.078125 0.941406 -6.351562 1.109375 -6.625 C 1.285156 -6.894531 1.515625 -7.164062 1.796875 -7.4375 C 1.953125 -7.570312 2.140625 -7.710938 2.359375 -7.859375 C 2.578125 -8.003906 2.835938 -8.132812 3.140625 -8.25 C 3.441406 -8.363281 3.785156 -8.457031 4.171875 -8.53125 C 4.554688 -8.613281 4.988281 -8.660156 5.46875 -8.671875 C 5.945312 -8.671875 6.378906 -8.628906 6.765625 -8.546875 C 7.148438 -8.472656 7.488281 -8.378906 7.78125 -8.265625 C 8.082031 -8.148438 8.34375 -8.019531 8.5625 -7.875 C 8.78125 -7.738281 8.972656 -7.601562 9.140625 -7.46875 C 9.421875 -7.207031 9.644531 -6.941406 9.8125 -6.671875 C 9.988281 -6.398438 10.125 -6.125 10.21875 -5.84375 C 10.3125 -5.570312 10.375 -5.300781 10.40625 -5.03125 C 10.445312 -4.757812 10.46875 -4.5 10.46875 -4.25 Z M 10.46875 -4.25 "/></g></g></g><g fill="#eff9ff" fill-opacity="1"><g transform="translate(197.883365, 280.615913)"><g><path d="M 7.609375 -1.203125 L 0.890625 -0.140625 L -0.421875 -8.4375 L 1.765625 -8.78125 L 2.8125 -2.171875 L 7.34375 -2.890625 Z M 7.609375 -1.203125 "/></g></g></g><g fill="#eff9ff" fill-opacity="1"><g transform="translate(210.026504, 278.414797)"><g><path d="M 5.890625 -7.109375 L 6.359375 -5.59375 L 1.953125 -4.234375 L 2.46875 -2.515625 L 7.8125 -4.15625 L 8.3125 -2.546875 L 0.859375 -0.265625 L -1.609375 -8.296875 L 5.71875 -10.546875 L 6.21875 -8.9375 L 1 -7.328125 L 1.484375 -5.75 Z M 5.890625 -7.109375 "/></g></g></g><g fill="#eff9ff" fill-opacity="1"><g transform="translate(222.814601, 274.166629)"><g><path d="M 0.765625 -5.5625 L 2.875 -6.578125 C 3.039062 -6.648438 3.210938 -6.75 3.390625 -6.875 C 3.566406 -7 3.695312 -7.164062 3.78125 -7.375 C 3.800781 -7.46875 3.8125 -7.578125 3.8125 -7.703125 C 3.820312 -7.835938 3.789062 -7.988281 3.71875 -8.15625 C 3.625 -8.34375 3.507812 -8.472656 3.375 -8.546875 C 3.238281 -8.628906 3.113281 -8.679688 3 -8.703125 C 2.914062 -8.710938 2.820312 -8.707031 2.71875 -8.6875 C 2.625 -8.675781 2.53125 -8.648438 2.4375 -8.609375 C 2.34375 -8.566406 2.253906 -8.53125 2.171875 -8.5 C 2.085938 -8.46875 2.015625 -8.4375 1.953125 -8.40625 L -0.125 -7.40625 Z M -2.84375 -7.953125 L 1.640625 -10.125 C 1.828125 -10.207031 2.03125 -10.296875 2.25 -10.390625 C 2.46875 -10.484375 2.695312 -10.5625 2.9375 -10.625 C 3.1875 -10.6875 3.4375 -10.722656 3.6875 -10.734375 C 3.9375 -10.742188 4.175781 -10.703125 4.40625 -10.609375 C 4.75 -10.503906 5.015625 -10.332031 5.203125 -10.09375 C 5.390625 -9.851562 5.535156 -9.628906 5.640625 -9.421875 C 5.753906 -9.171875 5.828125 -8.914062 5.859375 -8.65625 C 5.890625 -8.394531 5.859375 -8.128906 5.765625 -7.859375 C 5.703125 -7.660156 5.601562 -7.472656 5.46875 -7.296875 C 5.34375 -7.128906 5.207031 -6.984375 5.0625 -6.859375 L 5.078125 -6.8125 C 5.242188 -6.851562 5.425781 -6.875 5.625 -6.875 C 5.820312 -6.882812 6.007812 -6.851562 6.1875 -6.78125 C 6.3125 -6.726562 6.421875 -6.664062 6.515625 -6.59375 C 6.617188 -6.53125 6.703125 -6.453125 6.765625 -6.359375 C 6.835938 -6.273438 6.898438 -6.179688 6.953125 -6.078125 C 7.003906 -5.984375 7.054688 -5.894531 7.109375 -5.8125 L 7.59375 -4.984375 C 7.6875 -4.804688 7.789062 -4.644531 7.90625 -4.5 C 8.019531 -4.351562 8.1875 -4.207031 8.40625 -4.0625 L 6.3125 -3.046875 C 6.101562 -3.148438 5.945312 -3.265625 5.84375 -3.390625 C 5.75 -3.523438 5.648438 -3.679688 5.546875 -3.859375 L 5.21875 -4.484375 C 5.09375 -4.691406 4.957031 -4.859375 4.8125 -4.984375 C 4.675781 -5.109375 4.546875 -5.1875 4.421875 -5.21875 C 4.265625 -5.257812 4.082031 -5.253906 3.875 -5.203125 C 3.664062 -5.160156 3.476562 -5.097656 3.3125 -5.015625 L 1.453125 -4.125 L 2.796875 -1.359375 L 0.8125 -0.390625 Z M -2.84375 -7.953125 "/></g></g></g><g fill="#eff9ff" fill-opacity="1"><g transform="translate(235.458557, 267.557578)"><g><path d="M -1.953125 -8.75 L 2.609375 -1.6875 L 0.765625 -0.5 L -3.796875 -7.5625 Z M -1.953125 -8.75 "/></g></g></g><g fill="#eff9ff" fill-opacity="1"><g transform="translate(242.520459, 262.860318)"><g><path d="M 2.609375 -6.28125 L -0.40625 -7.84375 L 0.640625 -4.625 Z M 1.6875 -1.40625 L -0.078125 0.0625 L -2.59375 -8.796875 L -0.921875 -10.1875 L 7.359375 -6.15625 L 5.59375 -4.6875 L 3.9375 -5.515625 L 1.140625 -3.1875 Z M 1.6875 -1.40625 "/></g></g></g><g fill="#eff9ff" fill-opacity="1"><g transform="translate(111.33384, 143.676595)"><g><path d="M 1.640625 -2.640625 L 0.484375 -0.765625 L -6.640625 -5.21875 L -5.484375 -7.09375 L -2.8125 -5.421875 L -0.6875 -8.796875 L -3.359375 -10.46875 L -2.203125 -12.34375 L 4.921875 -7.890625 L 3.765625 -6.015625 L 0.734375 -7.90625 L -1.390625 -4.53125 Z M 1.640625 -2.640625 "/></g></g></g><g fill="#eff9ff" fill-opacity="1"><g transform="translate(119.141684, 131.848108)"><g><path d="M 1.234375 -9.140625 L 2.4375 -8.109375 L -0.59375 -4.625 L 0.75 -3.453125 L 4.421875 -7.671875 L 5.703125 -6.5625 L 0.59375 -0.6875 L -5.75 -6.203125 L -0.734375 -11.984375 L 0.53125 -10.875 L -3.046875 -6.75 L -1.796875 -5.65625 Z M 1.234375 -9.140625 "/></g></g></g><g fill="#eff9ff" fill-opacity="1"><g transform="translate(127.808889, 122.280882)"><g><path d="M -0.640625 -5.5625 L 1.15625 -7.078125 C 1.289062 -7.191406 1.429688 -7.332031 1.578125 -7.5 C 1.722656 -7.664062 1.804688 -7.859375 1.828125 -8.078125 C 1.835938 -8.171875 1.828125 -8.285156 1.796875 -8.421875 C 1.765625 -8.554688 1.691406 -8.691406 1.578125 -8.828125 C 1.429688 -8.992188 1.28125 -9.097656 1.125 -9.140625 C 0.976562 -9.179688 0.847656 -9.195312 0.734375 -9.1875 C 0.660156 -9.164062 0.578125 -9.132812 0.484375 -9.09375 C 0.398438 -9.050781 0.3125 -9 0.21875 -8.9375 C 0.132812 -8.882812 0.0625 -8.832031 0 -8.78125 C -0.0703125 -8.726562 -0.132812 -8.679688 -0.1875 -8.640625 L -1.953125 -7.140625 Z M -4.734375 -7 L -0.9375 -10.21875 C -0.769531 -10.34375 -0.585938 -10.476562 -0.390625 -10.625 C -0.203125 -10.769531 0 -10.898438 0.21875 -11.015625 C 0.4375 -11.128906 0.664062 -11.222656 0.90625 -11.296875 C 1.144531 -11.378906 1.390625 -11.410156 1.640625 -11.390625 C 1.992188 -11.347656 2.285156 -11.238281 2.515625 -11.0625 C 2.753906 -10.882812 2.945312 -10.710938 3.09375 -10.546875 C 3.28125 -10.328125 3.421875 -10.09375 3.515625 -9.84375 C 3.617188 -9.59375 3.660156 -9.320312 3.640625 -9.03125 C 3.628906 -8.832031 3.582031 -8.632812 3.5 -8.4375 C 3.414062 -8.238281 3.3125 -8.054688 3.1875 -7.890625 L 3.21875 -7.859375 C 3.375 -7.941406 3.546875 -8.007812 3.734375 -8.0625 C 3.921875 -8.113281 4.109375 -8.128906 4.296875 -8.109375 C 4.429688 -8.085938 4.554688 -8.054688 4.671875 -8.015625 C 4.785156 -7.972656 4.890625 -7.914062 4.984375 -7.84375 C 5.078125 -7.78125 5.15625 -7.707031 5.21875 -7.625 C 5.289062 -7.539062 5.367188 -7.46875 5.453125 -7.40625 L 6.09375 -6.734375 C 6.25 -6.585938 6.398438 -6.453125 6.546875 -6.328125 C 6.691406 -6.210938 6.890625 -6.113281 7.140625 -6.03125 L 5.359375 -4.53125 C 5.117188 -4.582031 4.9375 -4.65625 4.8125 -4.75 C 4.695312 -4.851562 4.566406 -4.976562 4.421875 -5.125 L 3.9375 -5.625 C 3.769531 -5.820312 3.597656 -5.960938 3.421875 -6.046875 C 3.253906 -6.128906 3.109375 -6.164062 2.984375 -6.15625 C 2.828125 -6.164062 2.65625 -6.117188 2.46875 -6.015625 C 2.28125 -5.921875 2.113281 -5.816406 1.96875 -5.703125 L 0.390625 -4.359375 L 2.375 -2 L 0.6875 -0.578125 Z M -4.734375 -7 "/></g></g></g><g fill="#eff9ff" fill-opacity="1"><g transform="translate(138.44339, 113.57444)"><g><path d="M -0.4375 -6.96875 L -0.5 -6.921875 L -0.09375 -6.359375 L 2.6875 -1.5625 L 0.78125 -0.453125 L -3.4375 -7.734375 L -0.75 -9.296875 L 4.375 -5.1875 L 4.421875 -5.21875 L 3.421875 -11.703125 L 6.125 -13.265625 L 10.34375 -5.984375 L 8.4375 -4.890625 L 5.65625 -9.6875 L 5.375 -10.328125 L 5.3125 -10.296875 L 6.25 -3.609375 L 4.875 -2.8125 Z M -0.4375 -6.96875 "/></g></g></g><g fill="#eff9ff" fill-opacity="1"><g transform="translate(153.201864, 105.595596)"><g><path d="M 4.59375 -5.015625 L 2.296875 -7.53125 L 2.1875 -4.140625 Z M 2.0625 -0.75 L -0.109375 0.03125 L 0.546875 -9.140625 L 2.578125 -9.890625 L 9.015625 -3.296875 L 6.859375 -2.5 L 5.578125 -3.84375 L 2.171875 -2.59375 Z M 2.0625 -0.75 "/></g></g></g><g fill="#eff9ff" fill-opacity="1"><g transform="translate(165.880852, 101.258963)"><g><path d="M 9.3125 -1.78125 L 7.21875 -1.390625 L 1.984375 -6.140625 L 3.046875 -0.59375 L 0.890625 -0.171875 L -0.6875 -8.421875 L 1.421875 -8.828125 L 6.640625 -4.09375 L 5.578125 -9.625 L 7.734375 -10.03125 Z M 9.3125 -1.78125 "/></g></g></g><g fill="#eff9ff" fill-opacity="1"><g transform="translate(180.018095, 98.857458)"><g><path d="M 5.359375 -7.0625 C 5.078125 -7.0625 4.773438 -7.019531 4.453125 -6.9375 C 4.128906 -6.851562 3.828125 -6.671875 3.546875 -6.390625 C 3.367188 -6.210938 3.234375 -6.023438 3.140625 -5.828125 C 3.046875 -5.628906 2.972656 -5.429688 2.921875 -5.234375 C 2.878906 -5.046875 2.847656 -4.863281 2.828125 -4.6875 C 2.816406 -4.519531 2.816406 -4.378906 2.828125 -4.265625 C 2.828125 -4.140625 2.832031 -3.988281 2.84375 -3.8125 C 2.863281 -3.644531 2.898438 -3.460938 2.953125 -3.265625 C 3.015625 -3.078125 3.097656 -2.882812 3.203125 -2.6875 C 3.304688 -2.5 3.445312 -2.328125 3.625 -2.171875 C 3.925781 -1.890625 4.238281 -1.710938 4.5625 -1.640625 C 4.882812 -1.578125 5.1875 -1.546875 5.46875 -1.546875 C 5.75 -1.554688 6.050781 -1.601562 6.375 -1.6875 C 6.695312 -1.769531 6.992188 -1.953125 7.265625 -2.234375 C 7.441406 -2.410156 7.578125 -2.59375 7.671875 -2.78125 C 7.773438 -2.976562 7.847656 -3.171875 7.890625 -3.359375 C 7.941406 -3.554688 7.972656 -3.738281 7.984375 -3.90625 C 8.003906 -4.082031 8.015625 -4.234375 8.015625 -4.359375 C 8.003906 -4.472656 7.988281 -4.613281 7.96875 -4.78125 C 7.957031 -4.957031 7.921875 -5.140625 7.859375 -5.328125 C 7.804688 -5.523438 7.722656 -5.722656 7.609375 -5.921875 C 7.503906 -6.117188 7.363281 -6.296875 7.1875 -6.453125 C 6.894531 -6.734375 6.585938 -6.90625 6.265625 -6.96875 C 5.941406 -7.039062 5.640625 -7.070312 5.359375 -7.0625 Z M 10.40625 -4.421875 C 10.40625 -4.171875 10.390625 -3.90625 10.359375 -3.625 C 10.335938 -3.351562 10.28125 -3.078125 10.1875 -2.796875 C 10.101562 -2.523438 9.976562 -2.25 9.8125 -1.96875 C 9.644531 -1.6875 9.425781 -1.421875 9.15625 -1.171875 C 8.988281 -1.023438 8.796875 -0.878906 8.578125 -0.734375 C 8.367188 -0.585938 8.113281 -0.453125 7.8125 -0.328125 C 7.519531 -0.203125 7.179688 -0.0976562 6.796875 -0.015625 C 6.410156 0.0664062 5.976562 0.113281 5.5 0.125 C 5.019531 0.132812 4.585938 0.101562 4.203125 0.03125 C 3.816406 -0.03125 3.472656 -0.117188 3.171875 -0.234375 C 2.867188 -0.347656 2.601562 -0.472656 2.375 -0.609375 C 2.15625 -0.742188 1.96875 -0.878906 1.8125 -1.015625 C 1.519531 -1.265625 1.285156 -1.523438 1.109375 -1.796875 C 0.929688 -2.066406 0.789062 -2.335938 0.6875 -2.609375 C 0.582031 -2.890625 0.507812 -3.164062 0.46875 -3.4375 C 0.4375 -3.707031 0.421875 -3.96875 0.421875 -4.21875 C 0.410156 -4.46875 0.414062 -4.726562 0.4375 -5 C 0.46875 -5.269531 0.53125 -5.539062 0.625 -5.8125 C 0.71875 -6.09375 0.847656 -6.367188 1.015625 -6.640625 C 1.179688 -6.921875 1.398438 -7.191406 1.671875 -7.453125 C 1.828125 -7.597656 2.015625 -7.742188 2.234375 -7.890625 C 2.453125 -8.046875 2.707031 -8.179688 3 -8.296875 C 3.300781 -8.421875 3.644531 -8.523438 4.03125 -8.609375 C 4.414062 -8.691406 4.847656 -8.738281 5.328125 -8.75 C 5.804688 -8.757812 6.238281 -8.726562 6.625 -8.65625 C 7.007812 -8.59375 7.351562 -8.503906 7.65625 -8.390625 C 7.957031 -8.285156 8.21875 -8.160156 8.4375 -8.015625 C 8.65625 -7.878906 8.847656 -7.742188 9.015625 -7.609375 C 9.304688 -7.347656 9.539062 -7.082031 9.71875 -6.8125 C 9.894531 -6.550781 10.03125 -6.28125 10.125 -6 C 10.226562 -5.726562 10.296875 -5.457031 10.328125 -5.1875 C 10.367188 -4.925781 10.394531 -4.671875 10.40625 -4.421875 Z M 10.40625 -4.421875 "/></g></g></g><g fill="#eff9ff" fill-opacity="1"><g transform="translate(194.955196, 98.946406)"><g><path d="M 3.078125 -2.296875 L 3.0625 -2.25 C 3.039062 -2.050781 3.050781 -1.882812 3.09375 -1.75 C 3.144531 -1.625 3.207031 -1.515625 3.28125 -1.421875 C 3.375 -1.304688 3.488281 -1.207031 3.625 -1.125 C 3.757812 -1.039062 3.894531 -0.972656 4.03125 -0.921875 C 4.164062 -0.867188 4.300781 -0.828125 4.4375 -0.796875 C 4.582031 -0.773438 4.710938 -0.757812 4.828125 -0.75 C 5.140625 -0.695312 5.390625 -0.671875 5.578125 -0.671875 C 5.765625 -0.679688 5.921875 -0.710938 6.046875 -0.765625 C 6.234375 -0.828125 6.382812 -0.929688 6.5 -1.078125 C 6.613281 -1.234375 6.679688 -1.378906 6.703125 -1.515625 C 6.722656 -1.609375 6.707031 -1.726562 6.65625 -1.875 C 6.601562 -2.03125 6.457031 -2.175781 6.21875 -2.3125 C 6.15625 -2.34375 6.078125 -2.378906 5.984375 -2.421875 C 5.890625 -2.460938 5.785156 -2.503906 5.671875 -2.546875 C 5.566406 -2.585938 5.460938 -2.625 5.359375 -2.65625 C 5.265625 -2.695312 5.179688 -2.726562 5.109375 -2.75 L 3.9375 -3.125 C 3.707031 -3.1875 3.476562 -3.253906 3.25 -3.328125 C 3.019531 -3.398438 2.796875 -3.484375 2.578125 -3.578125 C 2.367188 -3.671875 2.175781 -3.78125 2 -3.90625 C 1.820312 -4.039062 1.675781 -4.195312 1.5625 -4.375 C 1.488281 -4.5 1.414062 -4.675781 1.34375 -4.90625 C 1.269531 -5.132812 1.253906 -5.421875 1.296875 -5.765625 C 1.367188 -6.253906 1.523438 -6.660156 1.765625 -6.984375 C 2.003906 -7.304688 2.332031 -7.554688 2.75 -7.734375 C 2.976562 -7.828125 3.207031 -7.894531 3.4375 -7.9375 C 3.675781 -7.988281 3.914062 -8.019531 4.15625 -8.03125 C 4.40625 -8.039062 4.644531 -8.03125 4.875 -8 C 5.101562 -7.976562 5.328125 -7.953125 5.546875 -7.921875 C 6.296875 -7.816406 6.890625 -7.679688 7.328125 -7.515625 C 7.765625 -7.359375 8.109375 -7.175781 8.359375 -6.96875 C 8.585938 -6.78125 8.765625 -6.585938 8.890625 -6.390625 C 9.023438 -6.203125 9.117188 -6.015625 9.171875 -5.828125 C 9.222656 -5.640625 9.25 -5.457031 9.25 -5.28125 C 9.25 -5.113281 9.234375 -4.945312 9.203125 -4.78125 L 6.984375 -5.09375 C 6.992188 -5.25 6.972656 -5.394531 6.921875 -5.53125 C 6.867188 -5.675781 6.757812 -5.804688 6.59375 -5.921875 C 6.5 -5.992188 6.394531 -6.050781 6.28125 -6.09375 C 6.164062 -6.144531 6.046875 -6.1875 5.921875 -6.21875 C 5.804688 -6.25 5.691406 -6.273438 5.578125 -6.296875 C 5.460938 -6.316406 5.367188 -6.332031 5.296875 -6.34375 C 5.085938 -6.363281 4.878906 -6.375 4.671875 -6.375 C 4.460938 -6.382812 4.28125 -6.351562 4.125 -6.28125 C 3.96875 -6.21875 3.84375 -6.125 3.75 -6 C 3.664062 -5.882812 3.613281 -5.757812 3.59375 -5.625 C 3.5625 -5.425781 3.609375 -5.269531 3.734375 -5.15625 C 3.859375 -5.050781 3.984375 -4.960938 4.109375 -4.890625 C 4.160156 -4.878906 4.222656 -4.859375 4.296875 -4.828125 C 4.367188 -4.796875 4.457031 -4.757812 4.5625 -4.71875 C 4.664062 -4.675781 4.789062 -4.628906 4.9375 -4.578125 C 5.082031 -4.523438 5.269531 -4.46875 5.5 -4.40625 L 6.40625 -4.125 C 6.78125 -4 7.148438 -3.859375 7.515625 -3.703125 C 7.878906 -3.554688 8.1875 -3.359375 8.4375 -3.109375 C 8.75 -2.804688 8.929688 -2.484375 8.984375 -2.140625 C 9.046875 -1.796875 9.054688 -1.476562 9.015625 -1.1875 C 8.941406 -0.6875 8.785156 -0.289062 8.546875 0 C 8.304688 0.300781 8.046875 0.535156 7.765625 0.703125 C 7.640625 0.765625 7.488281 0.820312 7.3125 0.875 C 7.144531 0.925781 6.941406 0.960938 6.703125 0.984375 C 6.472656 1.015625 6.191406 1.023438 5.859375 1.015625 C 5.523438 1.003906 5.148438 0.972656 4.734375 0.921875 C 4.398438 0.867188 4.0625 0.8125 3.71875 0.75 C 3.375 0.6875 3.046875 0.597656 2.734375 0.484375 C 2.429688 0.367188 2.144531 0.222656 1.875 0.046875 C 1.601562 -0.117188 1.378906 -0.332031 1.203125 -0.59375 C 1.066406 -0.757812 0.96875 -0.9375 0.90625 -1.125 C 0.84375 -1.320312 0.796875 -1.503906 0.765625 -1.671875 C 0.742188 -1.847656 0.738281 -2.015625 0.75 -2.171875 C 0.769531 -2.328125 0.785156 -2.460938 0.796875 -2.578125 L 0.8125 -2.625 Z M 3.078125 -2.296875 "/></g></g></g><g fill="#eff9ff" fill-opacity="1"><g transform="translate(207.97694, 101.233153)"><g/></g></g><g fill="#eff9ff" fill-opacity="1"><g transform="translate(214.563862, 103.003035)"><g><path d="M 3.46875 -0.3125 L 5.640625 0.5625 C 5.972656 0.6875 6.21875 0.753906 6.375 0.765625 C 6.539062 0.773438 6.632812 0.78125 6.65625 0.78125 C 6.78125 0.75 6.90625 0.6875 7.03125 0.59375 C 7.164062 0.507812 7.273438 0.367188 7.359375 0.171875 C 7.441406 -0.046875 7.460938 -0.226562 7.421875 -0.375 C 7.378906 -0.53125 7.328125 -0.65625 7.265625 -0.75 C 7.203125 -0.8125 7.132812 -0.867188 7.0625 -0.921875 C 6.988281 -0.972656 6.90625 -1.023438 6.8125 -1.078125 C 6.71875 -1.140625 6.628906 -1.1875 6.546875 -1.21875 C 6.460938 -1.25 6.394531 -1.273438 6.34375 -1.296875 L 4.203125 -2.15625 Z M 4.765625 -3.5625 L 6.609375 -2.828125 C 6.835938 -2.734375 7.050781 -2.660156 7.25 -2.609375 C 7.445312 -2.554688 7.632812 -2.5625 7.8125 -2.625 C 7.882812 -2.65625 7.960938 -2.707031 8.046875 -2.78125 C 8.140625 -2.851562 8.21875 -2.972656 8.28125 -3.140625 C 8.351562 -3.304688 8.375 -3.445312 8.34375 -3.5625 C 8.320312 -3.6875 8.285156 -3.796875 8.234375 -3.890625 C 8.160156 -4.023438 8.039062 -4.128906 7.875 -4.203125 C 7.71875 -4.285156 7.546875 -4.363281 7.359375 -4.4375 L 5.421875 -5.21875 Z M 8.453125 -5.6875 C 8.847656 -5.53125 9.21875 -5.359375 9.5625 -5.171875 C 9.90625 -4.984375 10.175781 -4.742188 10.375 -4.453125 C 10.40625 -4.398438 10.453125 -4.320312 10.515625 -4.21875 C 10.578125 -4.113281 10.617188 -3.976562 10.640625 -3.8125 C 10.671875 -3.65625 10.679688 -3.472656 10.671875 -3.265625 C 10.660156 -3.054688 10.601562 -2.832031 10.5 -2.59375 C 10.375 -2.269531 10.222656 -2.023438 10.046875 -1.859375 C 9.878906 -1.703125 9.710938 -1.597656 9.546875 -1.546875 C 9.398438 -1.484375 9.257812 -1.441406 9.125 -1.421875 C 9 -1.398438 8.867188 -1.394531 8.734375 -1.40625 C 8.609375 -1.425781 8.507812 -1.441406 8.4375 -1.453125 C 8.363281 -1.460938 8.316406 -1.472656 8.296875 -1.484375 L 8.28125 -1.4375 C 8.53125 -1.3125 8.769531 -1.140625 9 -0.921875 C 9.226562 -0.710938 9.394531 -0.484375 9.5 -0.234375 C 9.625 0.046875 9.664062 0.320312 9.625 0.59375 C 9.59375 0.863281 9.535156 1.09375 9.453125 1.28125 C 9.316406 1.632812 9.140625 1.914062 8.921875 2.125 C 8.710938 2.332031 8.5 2.484375 8.28125 2.578125 C 8.0625 2.648438 7.828125 2.6875 7.578125 2.6875 C 7.335938 2.6875 7.09375 2.660156 6.84375 2.609375 C 6.601562 2.554688 6.359375 2.488281 6.109375 2.40625 C 5.859375 2.320312 5.628906 2.238281 5.421875 2.15625 L 0.84375 0.328125 L 3.953125 -7.484375 Z M 8.453125 -5.6875 "/></g></g></g><g fill="#eff9ff" fill-opacity="1"><g transform="translate(227.266546, 108.386039)"><g><path d="M 5.0625 -2.421875 L 7.078125 -1.21875 C 7.222656 -1.132812 7.394531 -1.046875 7.59375 -0.953125 C 7.800781 -0.867188 8.015625 -0.851562 8.234375 -0.90625 C 8.316406 -0.925781 8.414062 -0.972656 8.53125 -1.046875 C 8.65625 -1.117188 8.757812 -1.226562 8.84375 -1.375 C 8.957031 -1.5625 9.007812 -1.734375 9 -1.890625 C 8.988281 -2.054688 8.960938 -2.191406 8.921875 -2.296875 C 8.878906 -2.359375 8.820312 -2.425781 8.75 -2.5 C 8.6875 -2.570312 8.613281 -2.632812 8.53125 -2.6875 C 8.457031 -2.75 8.378906 -2.804688 8.296875 -2.859375 C 8.210938 -2.910156 8.144531 -2.953125 8.09375 -2.984375 L 6.109375 -4.171875 Z M 5.09375 -6.75 L 9.359375 -4.203125 C 9.535156 -4.097656 9.722656 -3.976562 9.921875 -3.84375 C 10.117188 -3.71875 10.304688 -3.566406 10.484375 -3.390625 C 10.671875 -3.222656 10.835938 -3.035156 10.984375 -2.828125 C 11.128906 -2.628906 11.226562 -2.40625 11.28125 -2.15625 C 11.375 -1.8125 11.375 -1.492188 11.28125 -1.203125 C 11.1875 -0.921875 11.082031 -0.679688 10.96875 -0.484375 C 10.820312 -0.242188 10.648438 -0.0390625 10.453125 0.125 C 10.253906 0.289062 10.015625 0.410156 9.734375 0.484375 C 9.535156 0.546875 9.328125 0.570312 9.109375 0.5625 C 8.898438 0.550781 8.695312 0.515625 8.5 0.453125 L 8.484375 0.484375 C 8.617188 0.609375 8.738281 0.75 8.84375 0.90625 C 8.957031 1.070312 9.03125 1.242188 9.0625 1.421875 C 9.09375 1.554688 9.101562 1.679688 9.09375 1.796875 C 9.09375 1.921875 9.078125 2.035156 9.046875 2.140625 C 9.015625 2.253906 8.96875 2.359375 8.90625 2.453125 C 8.851562 2.546875 8.804688 2.640625 8.765625 2.734375 L 8.34375 3.578125 C 8.25 3.765625 8.171875 3.945312 8.109375 4.125 C 8.046875 4.300781 8.019531 4.519531 8.03125 4.78125 L 6.03125 3.59375 C 6 3.363281 6.007812 3.171875 6.0625 3.015625 C 6.113281 2.867188 6.191406 2.703125 6.296875 2.515625 L 6.609375 1.890625 C 6.722656 1.660156 6.789062 1.453125 6.8125 1.265625 C 6.84375 1.085938 6.835938 0.9375 6.796875 0.8125 C 6.742188 0.664062 6.640625 0.519531 6.484375 0.375 C 6.335938 0.226562 6.179688 0.109375 6.015625 0.015625 L 4.25 -1.046875 L 2.671875 1.59375 L 0.78125 0.46875 Z M 5.09375 -6.75 "/></g></g></g><g fill="#eff9ff" fill-opacity="1"><g transform="translate(238.930248, 115.717873)"><g><path d="M 6.640625 1.453125 L 7.65625 -1.796875 L 4.6875 -0.1875 Z M 1.6875 1.40625 L -0.078125 -0.0625 L 8.203125 -4.109375 L 9.859375 -2.71875 L 7.375 6.140625 L 5.609375 4.671875 L 6.140625 2.890625 L 3.34375 0.5625 Z M 1.6875 1.40625 "/></g></g></g><g fill="#eff9ff" fill-opacity="1"><g transform="translate(249.026923, 124.552185)"><g><path d="M 10.71875 -0.546875 L 12.296875 1.234375 L 3.75 4.25 L 2.15625 2.453125 L 6.21875 -5.640625 L 7.875 -3.78125 L 4.625 1.90625 L 4.671875 1.96875 Z M 10.71875 -0.546875 "/></g></g></g><g fill="#eff9ff" fill-opacity="1"><g transform="translate(257.370536, 134.339111)"><g><path d="M 8.8125 0.953125 C 8.65625 0.710938 8.460938 0.472656 8.234375 0.234375 C 8.003906 -0.00390625 7.691406 -0.171875 7.296875 -0.265625 C 7.054688 -0.328125 6.828125 -0.347656 6.609375 -0.328125 C 6.390625 -0.304688 6.1875 -0.265625 6 -0.203125 C 5.8125 -0.140625 5.640625 -0.0703125 5.484375 0 C 5.328125 0.0820312 5.203125 0.148438 5.109375 0.203125 C 4.992188 0.273438 4.867188 0.363281 4.734375 0.46875 C 4.597656 0.570312 4.460938 0.695312 4.328125 0.84375 C 4.191406 0.988281 4.066406 1.15625 3.953125 1.34375 C 3.847656 1.53125 3.769531 1.75 3.71875 2 C 3.632812 2.382812 3.644531 2.734375 3.75 3.046875 C 3.863281 3.367188 4 3.648438 4.15625 3.890625 C 4.300781 4.128906 4.488281 4.363281 4.71875 4.59375 C 4.957031 4.820312 5.273438 4.984375 5.671875 5.078125 C 5.910156 5.128906 6.132812 5.144531 6.34375 5.125 C 6.5625 5.113281 6.765625 5.078125 6.953125 5.015625 C 7.148438 4.960938 7.320312 4.894531 7.46875 4.8125 C 7.625 4.738281 7.757812 4.664062 7.875 4.59375 C 7.96875 4.539062 8.082031 4.460938 8.21875 4.359375 C 8.363281 4.253906 8.5 4.125 8.625 3.96875 C 8.757812 3.820312 8.882812 3.648438 9 3.453125 C 9.113281 3.265625 9.195312 3.050781 9.25 2.8125 C 9.332031 2.425781 9.316406 2.078125 9.203125 1.765625 C 9.085938 1.460938 8.957031 1.191406 8.8125 0.953125 Z M 9.15625 6.625 C 8.9375 6.757812 8.703125 6.882812 8.453125 7 C 8.210938 7.113281 7.945312 7.203125 7.65625 7.265625 C 7.375 7.335938 7.070312 7.375 6.75 7.375 C 6.4375 7.382812 6.09375 7.332031 5.71875 7.21875 C 5.507812 7.164062 5.285156 7.082031 5.046875 6.96875 C 4.816406 6.851562 4.570312 6.703125 4.3125 6.515625 C 4.050781 6.335938 3.785156 6.101562 3.515625 5.8125 C 3.242188 5.53125 2.984375 5.1875 2.734375 4.78125 C 2.472656 4.375 2.269531 3.988281 2.125 3.625 C 1.988281 3.257812 1.890625 2.914062 1.828125 2.59375 C 1.773438 2.269531 1.742188 1.976562 1.734375 1.71875 C 1.734375 1.46875 1.753906 1.234375 1.796875 1.015625 C 1.867188 0.648438 1.972656 0.316406 2.109375 0.015625 C 2.242188 -0.273438 2.398438 -0.535156 2.578125 -0.765625 C 2.765625 -0.992188 2.960938 -1.191406 3.171875 -1.359375 C 3.390625 -1.535156 3.609375 -1.691406 3.828125 -1.828125 C 4.035156 -1.953125 4.257812 -2.070312 4.5 -2.1875 C 4.75 -2.3125 5.015625 -2.40625 5.296875 -2.46875 C 5.585938 -2.53125 5.894531 -2.5625 6.21875 -2.5625 C 6.539062 -2.5625 6.882812 -2.507812 7.25 -2.40625 C 7.445312 -2.34375 7.664062 -2.257812 7.90625 -2.15625 C 8.144531 -2.050781 8.394531 -1.898438 8.65625 -1.703125 C 8.914062 -1.515625 9.179688 -1.273438 9.453125 -0.984375 C 9.722656 -0.703125 9.988281 -0.359375 10.25 0.046875 C 10.5 0.453125 10.691406 0.835938 10.828125 1.203125 C 10.972656 1.566406 11.070312 1.90625 11.125 2.21875 C 11.1875 2.53125 11.21875 2.816406 11.21875 3.078125 C 11.21875 3.347656 11.203125 3.585938 11.171875 3.796875 C 11.109375 4.171875 11.003906 4.503906 10.859375 4.796875 C 10.722656 5.085938 10.5625 5.34375 10.375 5.5625 C 10.195312 5.789062 10 5.992188 9.78125 6.171875 C 9.570312 6.347656 9.363281 6.5 9.15625 6.625 Z M 9.15625 6.625 "/></g></g></g></svg>