<svg xmlns="http://www.w3.org/2000/svg" version="1.1" xlink="http://www.w3.org/1999/xlink" xmlns:svgjs="http://svgjs.com/svgjs" width="246.98971449442664" height="147"><defs id="SvgjsDefs31865"/><g id="SvgjsG31866" transform="scale(0.5008511061654431)" opacity="1"><g id="SvgjsG31867" class="FJcTEn8_jc" transform="translate(155.99326530612245, -1.811534693877551) scale(1.811534693877551)" light-content="false" non-strokable="true" fill="#030303"><path d="M1 99h75c12.703 0 23-10.297 23-23V1H24C11.297 1 1 11.297 1 24v75z" stroke="#030303" fill="none" stroke-width="2"/></g><g id="SvgjsG31868" class="text" transform="translate(246.28, 119.8487311385758) scale(1)" light-content="false" fill="#030303"><path d="M-51.54 -4.35L-58.34 -3.28L-58.34 0L-37.43 0L-37.43 -3.28L-44.24 -4.35L-44.24 -27.96L-12.75 -27.96L-12.75 -4.35L-19.64 -3.28L-19.64 0L1.52 0L1.52 -3.28L-5.45 -4.35L-5.45 -57.81L0.94 -58.47L0.94 -62.16L-19.31 -62.16L-19.31 -58.47L-12.75 -57.81L-12.75 -32.39L-44.24 -32.39L-44.24 -57.81L-37.76 -58.47L-37.76 -62.16L-58.18 -62.16L-58.18 -58.47L-51.54 -57.81Z M16.93 -4.35L10.05 -3.28L10.05 0L20.05 0C20.49 0 21.25 0.05 22.35 0.16C27.43 0.44 30.98 0.57 33.01 0.57C41.48 0.57 47.92 -1.13 52.32 -4.55C56.72 -7.97 58.92 -12.55 58.92 -18.29C58.92 -21.24 58.21 -23.85 56.79 -26.12C55.36 -28.39 53.45 -30.15 51.05 -31.41C48.64 -32.66 45.96 -33.32 43.01 -33.37C46.94 -34.19 49.91 -35.98 51.91 -38.75C53.9 -41.51 54.9 -44.83 54.9 -48.71C54.9 -53.08 53.19 -56.5 49.77 -58.96C46.36 -61.42 41.48 -62.68 35.14 -62.73C32.68 -62.78 28.93 -62.68 23.9 -62.4L20.21 -62.16L10.21 -62.16L10.21 -58.47L16.93 -57.81ZM29.97 -34.69C27.13 -34.69 25.19 -34.77 24.15 -34.93L24.23 -58.14C25.05 -58.41 26.46 -58.58 28.45 -58.63C30.45 -58.68 32.19 -58.71 33.66 -58.71C37.87 -58.71 41.3 -57.76 43.95 -55.84C46.6 -53.93 47.93 -51.11 47.93 -47.4C47.93 -43.24 46.73 -40.08 44.32 -37.93C41.92 -35.77 38.64 -34.69 34.48 -34.69ZM28.62 -3.98C26.4 -4.28 24.91 -4.62 24.15 -5L24.15 -30.01C25.62 -30.18 27.46 -30.26 29.64 -30.26L35.71 -30.18C40.8 -30.18 44.65 -29.11 47.27 -26.98C49.9 -24.85 51.21 -21.48 51.21 -16.89C51.21 -12.19 49.68 -8.79 46.62 -6.68C43.56 -4.58 39.57 -3.53 34.65 -3.53C32.84 -3.53 30.83 -3.68 28.62 -3.98Z"/></g><g id="SvgjsG31869" class="text" transform="translate(246.45, 245.44039999999998) scale(1)" light-content="false" fill="#030303"><path d="M-241.47 -3.18L-246.45 -2.4L-246.45 0L-231.15 0L-231.15 -2.4L-236.13 -3.18L-236.13 -20.46L-213.09 -20.46L-213.09 -3.18L-218.13 -2.4L-218.13 0L-202.65 0L-202.65 -2.4L-207.75 -3.18L-207.75 -42.3L-203.07 -42.78L-203.07 -45.48L-217.89 -45.48L-217.89 -42.78L-213.09 -42.3L-213.09 -23.7L-236.13 -23.7L-236.13 -42.3L-231.39 -42.78L-231.39 -45.48L-246.33 -45.48L-246.33 -42.78L-241.47 -42.3Z M-171.99 -30.42C-174.03 -32.74 -176.83 -33.86 -180.39 -33.78C-183.51 -33.7 -186.3 -32.9 -188.76 -31.38C-191.22 -29.86 -193.14 -27.79 -194.52 -25.17C-195.9 -22.55 -196.59 -19.58 -196.59 -16.26C-196.59 -11.06 -195.3 -6.93 -192.72 -3.87C-190.14 -0.81 -186.53 0.72 -181.89 0.72C-179.57 0.72 -177.26 0.42 -174.96 -0.18C-172.66 -0.78 -170.95 -1.58 -169.83 -2.58L-170.85 -4.92C-171.73 -4.4 -173.05 -3.95 -174.81 -3.57C-176.57 -3.19 -178.25 -3 -179.85 -3C-183.53 -3 -186.36 -4.18 -188.34 -6.54C-190.32 -8.9 -191.31 -12.12 -191.31 -16.2L-169.29 -16.2C-169.05 -17.88 -168.93 -19.42 -168.93 -20.82C-168.93 -24.9 -169.95 -28.1 -171.99 -30.42ZM-188.16 -27.99C-186.42 -29.89 -184.29 -30.84 -181.77 -30.84C-180.17 -30.84 -178.85 -30.5 -177.81 -29.82C-175.57 -28.46 -174.45 -25.6 -174.45 -21.24C-174.45 -20.44 -174.47 -19.84 -174.51 -19.44L-191.25 -19.44C-190.93 -23.24 -189.9 -26.09 -188.16 -27.99Z M-157.83 -2.94L-162.69 -2.34L-162.69 0L-144.03 0L-144.03 -2.34L-152.55 -3L-152.55 -26.28C-150.31 -27.76 -147.81 -28.5 -145.05 -28.5C-143.93 -28.5 -143.04 -28.43 -142.38 -28.29C-141.72 -28.15 -140.95 -27.92 -140.07 -27.6L-140.07 -33.18C-140.55 -33.3 -141.51 -33.36 -142.95 -33.36C-144.71 -33.36 -146.66 -32.81 -148.8 -31.71C-150.94 -30.61 -152.41 -29.48 -153.21 -28.32L-153.21 -32.7L-154.53 -33.3L-162.09 -31.14L-162.09 -29.4L-157.83 -27.36Z M-130.77 -2.94L-134.85 -2.34L-134.85 0L-121.05 0L-121.05 -2.34L-125.49 -2.94L-125.49 -26.22C-123.93 -27.26 -122.34 -28.05 -120.72 -28.59C-119.1 -29.13 -117.67 -29.4 -116.43 -29.4C-114.63 -29.4 -113.26 -29.04 -112.32 -28.32C-111.38 -27.6 -110.74 -26.5 -110.4 -25.02C-110.06 -23.54 -109.89 -21.5 -109.89 -18.9L-109.89 -2.94L-114.33 -2.34L-114.33 0L-100.11 0L-100.11 -2.34L-104.67 -2.94L-104.67 -19.68C-104.67 -22.72 -104.89 -25.1 -105.33 -26.82C-102.25 -28.54 -99.33 -29.4 -96.57 -29.4C-94.73 -29.4 -93.33 -29.01 -92.37 -28.23C-91.41 -27.45 -90.76 -26.29 -90.42 -24.75C-90.08 -23.21 -89.91 -21.12 -89.91 -18.48L-89.91 -2.94L-93.93 -2.34L-93.93 0L-79.71 0L-79.71 -2.34L-84.63 -2.94L-84.63 -19.38C-84.63 -22.74 -84.92 -25.43 -85.5 -27.45C-86.08 -29.47 -87.04 -30.96 -88.38 -31.92C-89.72 -32.88 -91.53 -33.36 -93.81 -33.36C-95.73 -33.36 -97.92 -32.95 -100.38 -32.13C-102.84 -31.31 -104.77 -30.34 -106.17 -29.22C-106.89 -30.78 -107.9 -31.88 -109.2 -32.52C-110.5 -33.16 -112.21 -33.44 -114.33 -33.36C-116.25 -33.32 -118.35 -32.82 -120.63 -31.86C-122.91 -30.9 -124.77 -29.82 -126.21 -28.62L-126.21 -32.7L-127.41 -33.3L-135.03 -31.2L-135.03 -29.4L-130.77 -27.36Z M-53.19 -30.96C-55.27 -32.56 -58.09 -33.36 -61.65 -33.36C-63.41 -33.36 -65.48 -33.05 -67.86 -32.43C-70.24 -31.81 -72.09 -30.96 -73.41 -29.88L-72.39 -27.36C-71.15 -28.04 -69.69 -28.61 -68.01 -29.07C-66.33 -29.53 -64.85 -29.76 -63.57 -29.76C-60.89 -29.76 -58.85 -29.21 -57.45 -28.11C-56.05 -27.01 -55.35 -24.98 -55.35 -22.02L-55.35 -19.5C-58.19 -19.5 -61.09 -19.14 -64.05 -18.42C-67.01 -17.7 -69.53 -16.51 -71.61 -14.85C-73.69 -13.19 -74.73 -11.02 -74.73 -8.34C-74.73 -6.62 -74.31 -5.07 -73.47 -3.69C-72.63 -2.31 -71.47 -1.23 -69.99 -0.45C-68.51 0.33 -66.87 0.72 -65.07 0.72C-60.63 0.72 -57.29 -0.62 -55.05 -3.3C-55.05 -1.78 -54.84 -0.74 -54.42 -0.18C-54 0.38 -53.13 0.66 -51.81 0.66C-50.81 0.66 -49.83 0.55 -48.87 0.33C-47.91 0.11 -47.09 -0.18 -46.41 -0.54L-46.41 -2.4L-50.13 -2.4L-50.07 -22.62C-50.07 -26.58 -51.11 -29.36 -53.19 -30.96ZM-65.04 -14.94C-62.1 -16.1 -58.87 -16.68 -55.35 -16.68L-55.41 -5.46C-56.09 -4.82 -57.07 -4.21 -58.35 -3.63C-59.63 -3.05 -60.93 -2.76 -62.25 -2.76C-67.05 -2.76 -69.45 -4.92 -69.45 -9.24C-69.45 -11.88 -67.98 -13.78 -65.04 -14.94Z M-36.45 -2.94L-40.53 -2.34L-40.53 0L-26.73 0L-26.73 -2.34L-31.17 -2.94L-31.17 -26.22C-29.69 -27.26 -28.13 -28.05 -26.49 -28.59C-24.85 -29.13 -23.33 -29.4 -21.93 -29.4C-20.17 -29.4 -18.82 -29.03 -17.88 -28.29C-16.94 -27.55 -16.28 -26.41 -15.9 -24.87C-15.52 -23.33 -15.33 -21.28 -15.33 -18.72L-15.33 -2.94L-19.77 -2.34L-19.77 0L-5.37 0L-5.37 -2.34L-10.05 -2.94L-10.05 -19.56C-10.05 -24.48 -10.75 -28.02 -12.15 -30.18C-13.55 -32.34 -15.93 -33.42 -19.29 -33.42C-21.25 -33.42 -23.47 -32.93 -25.95 -31.95C-28.43 -30.97 -30.41 -29.86 -31.89 -28.62L-31.89 -32.7L-33.15 -33.3L-40.71 -31.14L-40.71 -29.4L-36.45 -27.36Z M23.28 -31.53C21.1 -33.03 18.41 -33.78 15.21 -33.78C12.41 -33.78 9.81 -33.09 7.41 -31.71C5.01 -30.33 3.08 -28.34 1.62 -25.74C0.16 -23.14 -0.57 -20.14 -0.57 -16.74C-0.57 -13.54 -0.05 -10.62 0.99 -7.98C2.03 -5.34 3.66 -3.23 5.88 -1.65C8.1 -0.07 10.91 0.72 14.31 0.72C17.15 0.72 19.73 -0.02 22.05 -1.5C24.37 -2.98 26.21 -5.06 27.57 -7.74C28.93 -10.42 29.63 -13.46 29.67 -16.86C29.67 -20.02 29.15 -22.88 28.11 -25.44C27.07 -28 25.46 -30.03 23.28 -31.53ZM7.35 -27.3C8.91 -29.66 11.25 -30.84 14.37 -30.84C17.61 -30.84 20.03 -29.53 21.63 -26.91C23.23 -24.29 24.03 -20.84 24.03 -16.56C24.03 -11.92 23.29 -8.39 21.81 -5.97C20.33 -3.55 17.99 -2.34 14.79 -2.34C11.59 -2.34 9.16 -3.77 7.5 -6.63C5.84 -9.49 5.01 -13.06 5.01 -17.34C5.01 -21.62 5.79 -24.94 7.35 -27.3Z M39.81 -8.4L37.35 -8.4L37.35 -1.8C38.79 -0.96 40.4 -0.33 42.18 0.09C43.96 0.51 45.75 0.72 47.55 0.72C51.31 0.72 54.38 -0.13 56.76 -1.83C59.14 -3.53 60.33 -5.96 60.33 -9.12C60.33 -10.88 59.81 -12.44 58.77 -13.8C57.73 -15.16 56.23 -16.29 54.27 -17.19C52.31 -18.09 51.17 -18.62 50.85 -18.78L49.35 -19.5C47.07 -20.58 45.39 -21.55 44.31 -22.41C43.23 -23.27 42.69 -24.38 42.69 -25.74C42.69 -27.46 43.31 -28.77 44.55 -29.67C45.79 -30.57 47.47 -31.02 49.59 -31.02C51.83 -31.02 53.61 -30.32 54.93 -28.92L56.13 -25.5L58.47 -25.5L58.47 -31.68C57.55 -32.24 56.28 -32.73 54.66 -33.15C53.04 -33.57 51.35 -33.78 49.59 -33.78C47.67 -33.78 45.79 -33.45 43.95 -32.79C42.11 -32.13 40.6 -31.12 39.42 -29.76C38.24 -28.4 37.65 -26.74 37.65 -24.78C37.65 -22.5 38.47 -20.6 40.11 -19.08C41.75 -17.56 43.97 -16.16 46.77 -14.88L48.87 -13.92C50.39 -13.24 51.56 -12.66 52.38 -12.18C53.2 -11.7 53.89 -11.11 54.45 -10.41C55.01 -9.71 55.29 -8.88 55.29 -7.92C55.29 -6.08 54.64 -4.68 53.34 -3.72C52.04 -2.76 50.31 -2.28 48.15 -2.28C46.63 -2.28 45.3 -2.47 44.16 -2.85C43.02 -3.23 41.95 -3.86 40.95 -4.74Z M85.29 -3.18L80.25 -2.4L80.25 0L87.57 0C87.89 0 88.45 0.04 89.25 0.12C92.97 0.32 95.57 0.42 97.05 0.42C103.25 0.42 107.96 -0.83 111.18 -3.33C114.4 -5.83 116.01 -9.18 116.01 -13.38C116.01 -15.54 115.49 -17.45 114.45 -19.11C113.41 -20.77 112.01 -22.06 110.25 -22.98C108.49 -23.9 106.53 -24.38 104.37 -24.42C107.25 -25.02 109.42 -26.33 110.88 -28.35C112.34 -30.37 113.07 -32.8 113.07 -35.64C113.07 -38.84 111.82 -41.34 109.32 -43.14C106.82 -44.94 103.25 -45.86 98.61 -45.9C96.81 -45.94 94.07 -45.86 90.39 -45.66L87.69 -45.48L80.37 -45.48L80.37 -42.78L85.29 -42.3ZM94.83 -25.38C92.75 -25.38 91.33 -25.44 90.57 -25.56L90.63 -42.54C91.23 -42.74 92.26 -42.86 93.72 -42.9C95.18 -42.94 96.45 -42.96 97.53 -42.96C100.61 -42.96 103.12 -42.26 105.06 -40.86C107 -39.46 107.97 -37.4 107.97 -34.68C107.97 -31.64 107.09 -29.33 105.33 -27.75C103.57 -26.17 101.17 -25.38 98.13 -25.38ZM93.84 -2.91C92.22 -3.13 91.13 -3.38 90.57 -3.66L90.57 -21.96C91.65 -22.08 92.99 -22.14 94.59 -22.14L99.03 -22.08C102.75 -22.08 105.57 -21.3 107.49 -19.74C109.41 -18.18 110.37 -15.72 110.37 -12.36C110.37 -8.92 109.25 -6.43 107.01 -4.89C104.77 -3.35 101.85 -2.58 98.25 -2.58C96.93 -2.58 95.46 -2.69 93.84 -2.91Z M126.81 -2.94L121.95 -2.34L121.95 0L140.61 0L140.61 -2.34L132.09 -3L132.09 -26.28C134.33 -27.76 136.83 -28.5 139.59 -28.5C140.71 -28.5 141.6 -28.43 142.26 -28.29C142.92 -28.15 143.69 -27.92 144.57 -27.6L144.57 -33.18C144.09 -33.3 143.13 -33.36 141.69 -33.36C139.93 -33.36 137.98 -32.81 135.84 -31.71C133.7 -30.61 132.23 -29.48 131.43 -28.32L131.43 -32.7L130.11 -33.3L122.55 -31.14L122.55 -29.4L126.81 -27.36Z M170.73 -30.96C168.65 -32.56 165.83 -33.36 162.27 -33.36C160.51 -33.36 158.44 -33.05 156.06 -32.43C153.68 -31.81 151.83 -30.96 150.51 -29.88L151.53 -27.36C152.77 -28.04 154.23 -28.61 155.91 -29.07C157.59 -29.53 159.07 -29.76 160.35 -29.76C163.03 -29.76 165.07 -29.21 166.47 -28.11C167.87 -27.01 168.57 -24.98 168.57 -22.02L168.57 -19.5C165.73 -19.5 162.83 -19.14 159.87 -18.42C156.91 -17.7 154.39 -16.51 152.31 -14.85C150.23 -13.19 149.19 -11.02 149.19 -8.34C149.19 -6.62 149.61 -5.07 150.45 -3.69C151.29 -2.31 152.45 -1.23 153.93 -0.45C155.41 0.33 157.05 0.72 158.85 0.72C163.29 0.72 166.63 -0.62 168.87 -3.3C168.87 -1.78 169.08 -0.74 169.5 -0.18C169.92 0.38 170.79 0.66 172.11 0.66C173.11 0.66 174.09 0.55 175.05 0.33C176.01 0.11 176.83 -0.18 177.51 -0.54L177.51 -2.4L173.79 -2.4L173.85 -22.62C173.85 -26.58 172.81 -29.36 170.73 -30.96ZM158.88 -14.94C161.82 -16.1 165.05 -16.68 168.57 -16.68L168.51 -5.46C167.83 -4.82 166.85 -4.21 165.57 -3.63C164.29 -3.05 162.99 -2.76 161.67 -2.76C156.87 -2.76 154.47 -4.92 154.47 -9.24C154.47 -11.88 155.94 -13.78 158.88 -14.94Z M178.65 -29.88L181.59 -29.4L194.55 0.72L198.27 0.72L210.15 -29.28L213.45 -29.88L213.45 -32.76L201.81 -32.76L201.81 -29.88L205.71 -29.34L199.77 -12.48L197.13 -4.62L194.37 -12.84L187.59 -29.34L191.43 -29.88L191.43 -32.76L178.65 -32.76Z M240.3 -31.53C238.12 -33.03 235.43 -33.78 232.23 -33.78C229.43 -33.78 226.83 -33.09 224.43 -31.71C222.03 -30.33 220.1 -28.34 218.64 -25.74C217.18 -23.14 216.45 -20.14 216.45 -16.74C216.45 -13.54 216.97 -10.62 218.01 -7.98C219.05 -5.34 220.68 -3.23 222.9 -1.65C225.12 -0.07 227.93 0.72 231.33 0.72C234.17 0.72 236.75 -0.02 239.07 -1.5C241.39 -2.98 243.23 -5.06 244.59 -7.74C245.95 -10.42 246.65 -13.46 246.69 -16.86C246.69 -20.02 246.17 -22.88 245.13 -25.44C244.09 -28 242.48 -30.03 240.3 -31.53ZM224.37 -27.3C225.93 -29.66 228.27 -30.84 231.39 -30.84C234.63 -30.84 237.05 -29.53 238.65 -26.91C240.25 -24.29 241.05 -20.84 241.05 -16.56C241.05 -11.92 240.31 -8.39 238.83 -5.97C237.35 -3.55 235.01 -2.34 231.81 -2.34C228.61 -2.34 226.18 -3.77 224.52 -6.63C222.86 -9.49 222.03 -13.06 222.03 -17.34C222.03 -21.62 222.81 -24.94 224.37 -27.3Z"/></g><g id="SvgjsG31870" class="text" transform="translate(246.53, 293.05039999999997) scale(1)" light-content="false" fill="#030303"><path d="M-244.04 -1.41L-246.53 -1.05L-246.53 0L-239.3 0L-239.3 -1.05L-241.79 -1.38L-241.79 -10.26L-229.76 -10.26L-229.76 -1.41L-232.25 -1.05L-232.25 0L-225.02 0L-225.02 -1.05L-227.51 -1.41L-227.51 -21.36L-225.23 -21.57L-225.23 -22.74L-232.19 -22.74L-232.19 -21.57L-229.76 -21.36L-229.76 -11.67L-241.79 -11.67L-241.79 -21.36L-239.42 -21.57L-239.42 -22.74L-246.44 -22.74L-246.44 -21.57L-244.04 -21.36Z M-208.51 -15.48C-209.53 -16.26 -210.89 -16.65 -212.59 -16.65C-213.41 -16.65 -214.4 -16.49 -215.56 -16.18C-216.72 -15.88 -217.63 -15.45 -218.29 -14.91L-217.87 -13.83C-217.23 -14.17 -216.49 -14.46 -215.64 -14.68C-214.79 -14.91 -214.06 -15.03 -213.46 -15.03C-212.08 -15.03 -211.02 -14.75 -210.28 -14.19C-209.54 -13.63 -209.17 -12.6 -209.17 -11.1L-209.17 -9.69C-210.57 -9.69 -212.02 -9.51 -213.51 -9.16C-215 -8.82 -216.27 -8.22 -217.33 -7.39C-218.39 -6.57 -218.92 -5.48 -218.92 -4.14C-218.92 -3.28 -218.72 -2.51 -218.31 -1.83C-217.9 -1.15 -217.34 -0.62 -216.63 -0.24C-215.92 0.14 -215.13 0.33 -214.27 0.33C-211.95 0.33 -210.23 -0.35 -209.11 -1.71C-209.11 -1.15 -209.08 -0.73 -209.02 -0.46C-208.96 -0.19 -208.83 0 -208.62 0.12C-208.41 0.24 -208.08 0.3 -207.64 0.3C-206.68 0.3 -205.84 0.12 -205.12 -0.24L-205.12 -1.08L-207.01 -1.08L-206.98 -11.37C-206.98 -13.33 -207.49 -14.7 -208.51 -15.48ZM-214.36 -7.51C-212.78 -8.1 -211.06 -8.4 -209.2 -8.4L-209.23 -2.67C-209.59 -2.33 -210.12 -2 -210.81 -1.68C-211.5 -1.36 -212.2 -1.2 -212.92 -1.2C-215.46 -1.2 -216.73 -2.32 -216.73 -4.56C-216.73 -5.94 -215.94 -6.92 -214.36 -7.51Z M-189.54 -16.63C-190.22 -16.76 -190.95 -16.83 -191.73 -16.83C-193.25 -16.83 -194.64 -16.48 -195.89 -15.76C-197.14 -15.06 -198.13 -14.02 -198.86 -12.67C-199.59 -11.32 -199.95 -9.75 -199.95 -7.95C-199.95 -6.37 -199.68 -4.95 -199.14 -3.7C-198.6 -2.45 -197.81 -1.47 -196.77 -0.76C-195.73 -0.05 -194.48 0.3 -193.02 0.3C-191.94 0.3 -190.89 0.16 -189.86 -0.12C-188.83 -0.4 -188.05 -0.78 -187.53 -1.26L-187.95 -2.37C-188.37 -2.09 -189.01 -1.85 -189.86 -1.66C-190.71 -1.48 -191.5 -1.38 -192.24 -1.38C-193.16 -1.38 -194.05 -1.64 -194.91 -2.16C-195.77 -2.68 -196.48 -3.5 -197.03 -4.63C-197.58 -5.77 -197.85 -7.2 -197.85 -8.94C-197.85 -10.34 -197.6 -11.52 -197.09 -12.48C-196.58 -13.44 -195.91 -14.16 -195.08 -14.64C-194.25 -15.12 -193.33 -15.36 -192.33 -15.36C-191.85 -15.36 -191.38 -15.3 -190.91 -15.19C-190.44 -15.09 -190.04 -14.91 -189.72 -14.67L-189.09 -12.87L-188.01 -12.87L-188.01 -16.11C-188.35 -16.33 -188.86 -16.5 -189.54 -16.63Z M-177.5 -23.38C-177.76 -23.68 -178.14 -23.82 -178.64 -23.82C-179.1 -23.82 -179.52 -23.64 -179.89 -23.28C-180.26 -22.92 -180.44 -22.49 -180.44 -21.99C-180.44 -21.55 -180.29 -21.19 -179.99 -20.91C-179.69 -20.63 -179.33 -20.49 -178.91 -20.49C-178.43 -20.49 -178.01 -20.66 -177.65 -21C-177.29 -21.34 -177.11 -21.77 -177.11 -22.29C-177.11 -22.73 -177.24 -23.09 -177.5 -23.38ZM-177.29 -16.35L-177.83 -16.62L-181.49 -15.66L-181.49 -14.91L-179.39 -14.1L-179.39 -1.32L-181.91 -1.05L-181.91 0L-174.86 0L-174.86 -1.05L-177.29 -1.32Z M-157.88 -15.31C-158.87 -16.4 -160.2 -16.93 -161.86 -16.89C-163.4 -16.85 -164.77 -16.45 -165.98 -15.69C-167.19 -14.93 -168.14 -13.89 -168.82 -12.58C-169.5 -11.28 -169.84 -9.8 -169.84 -8.16C-169.84 -5.56 -169.21 -3.49 -167.95 -1.95C-166.69 -0.41 -164.92 0.36 -162.64 0.36C-161.48 0.36 -160.34 0.21 -159.22 -0.09C-158.1 -0.39 -157.28 -0.78 -156.76 -1.26L-157.24 -2.31C-157.62 -2.05 -158.26 -1.82 -159.16 -1.62C-160.06 -1.42 -160.92 -1.32 -161.74 -1.32C-163.64 -1.32 -165.1 -1.94 -166.13 -3.18C-167.16 -4.42 -167.67 -6.1 -167.65 -8.22L-156.46 -8.22C-156.32 -9.22 -156.27 -10.07 -156.31 -10.77C-156.37 -12.71 -156.89 -14.22 -157.88 -15.31ZM-165.92 -14.08C-164.99 -15.06 -163.87 -15.54 -162.55 -15.54C-161.83 -15.54 -161.19 -15.45 -160.63 -15.27C-159.31 -14.55 -158.65 -12.98 -158.65 -10.56L-158.68 -9.69L-167.59 -9.69C-167.41 -11.65 -166.85 -13.11 -165.92 -14.08Z M-148.05 -1.29L-150.12 -1.05L-150.12 0L-143.52 0L-143.52 -1.05L-145.8 -1.32L-145.8 -13.17C-144.96 -13.75 -144.11 -14.19 -143.26 -14.49C-142.41 -14.79 -141.61 -14.94 -140.85 -14.94C-139.93 -14.94 -139.22 -14.74 -138.72 -14.35C-138.22 -13.96 -137.87 -13.36 -137.67 -12.55C-137.47 -11.74 -137.37 -10.67 -137.37 -9.33L-137.37 -1.32L-139.62 -1.05L-139.62 0L-132.78 0L-132.78 -1.05L-135.15 -1.29L-135.15 -9.72C-135.15 -11.46 -135.31 -12.84 -135.63 -13.87C-135.95 -14.91 -136.47 -15.64 -137.19 -16.09C-137.91 -16.54 -138.88 -16.74 -140.1 -16.68C-141.04 -16.66 -142.09 -16.4 -143.26 -15.91C-144.43 -15.43 -145.38 -14.89 -146.1 -14.31L-146.1 -16.32L-146.67 -16.62L-150.18 -15.66L-150.18 -14.91L-148.05 -13.98Z M-114.08 -23.46L-114.65 -23.76L-119.33 -23.25L-119.33 -22.17L-116.3 -21.78L-116.3 -16.35C-117.24 -16.71 -118.28 -16.89 -119.42 -16.89C-120.96 -16.89 -122.36 -16.51 -123.63 -15.73C-124.9 -14.97 -125.9 -13.89 -126.63 -12.52C-127.36 -11.16 -127.73 -9.62 -127.73 -7.92C-127.73 -6.06 -127.43 -4.51 -126.84 -3.27C-126.25 -2.03 -125.47 -1.11 -124.5 -0.52C-123.53 0.07 -122.49 0.36 -121.37 0.36C-120.13 0.36 -119.07 0.16 -118.19 -0.22C-117.31 -0.61 -116.65 -1.04 -116.21 -1.5C-116.25 -0.74 -116.18 -0.23 -116 0.03C-115.82 0.29 -115.43 0.42 -114.83 0.42C-114.41 0.42 -113.93 0.37 -113.39 0.27C-112.85 0.17 -112.42 0.04 -112.1 -0.12L-112.1 -1.08L-114.08 -1.08ZM-122.46 -14.83C-121.57 -15.3 -120.66 -15.54 -119.72 -15.54C-118.12 -15.54 -116.98 -15.11 -116.3 -14.25L-116.3 -2.88C-116.8 -2.4 -117.43 -2.04 -118.19 -1.78C-118.95 -1.54 -119.73 -1.41 -120.53 -1.41C-121.43 -1.41 -122.26 -1.65 -123.02 -2.14C-123.78 -2.64 -124.39 -3.4 -124.86 -4.44C-125.33 -5.48 -125.57 -6.77 -125.57 -8.31C-125.57 -10.03 -125.27 -11.43 -124.68 -12.51C-124.09 -13.59 -123.35 -14.37 -122.46 -14.83Z M-95.05 -15.73C-96.11 -16.51 -97.43 -16.89 -99.01 -16.89C-100.35 -16.89 -101.61 -16.54 -102.8 -15.84C-103.99 -15.14 -104.95 -14.14 -105.67 -12.85C-106.39 -11.56 -106.75 -10.07 -106.75 -8.37C-106.75 -6.79 -106.5 -5.34 -106 -4.02C-105.5 -2.7 -104.7 -1.64 -103.61 -0.84C-102.52 -0.04 -101.14 0.36 -99.46 0.36C-98.1 0.36 -96.85 -0.01 -95.71 -0.76C-94.57 -1.51 -93.66 -2.55 -92.99 -3.88C-92.32 -5.21 -91.98 -6.72 -91.96 -8.4C-91.96 -9.96 -92.21 -11.38 -92.71 -12.66C-93.21 -13.94 -93.99 -14.96 -95.05 -15.73ZM-103.15 -13.77C-102.31 -14.97 -101.06 -15.57 -99.4 -15.57C-97.72 -15.57 -96.45 -14.89 -95.6 -13.54C-94.75 -12.19 -94.33 -10.43 -94.33 -8.25C-94.33 -5.87 -94.73 -4.07 -95.53 -2.86C-96.33 -1.66 -97.56 -1.05 -99.22 -1.05C-100.92 -1.05 -102.21 -1.77 -103.09 -3.21C-103.97 -4.65 -104.41 -6.47 -104.41 -8.67C-104.41 -10.87 -103.99 -12.57 -103.15 -13.77Z M-63.1 -23.46L-63.67 -23.76L-68.35 -23.25L-68.35 -22.17L-65.32 -21.78L-65.32 -16.35C-66.26 -16.71 -67.3 -16.89 -68.44 -16.89C-69.98 -16.89 -71.39 -16.51 -72.66 -15.73C-73.93 -14.97 -74.93 -13.89 -75.66 -12.52C-76.39 -11.16 -76.75 -9.62 -76.75 -7.92C-76.75 -6.06 -76.46 -4.51 -75.87 -3.27C-75.28 -2.03 -74.5 -1.11 -73.53 -0.52C-72.56 0.07 -71.51 0.36 -70.39 0.36C-69.15 0.36 -68.09 0.16 -67.21 -0.22C-66.33 -0.61 -65.67 -1.04 -65.23 -1.5C-65.27 -0.74 -65.2 -0.23 -65.02 0.03C-64.84 0.29 -64.45 0.42 -63.85 0.42C-63.43 0.42 -62.95 0.37 -62.41 0.27C-61.87 0.17 -61.44 0.04 -61.12 -0.12L-61.12 -1.08L-63.1 -1.08ZM-71.49 -14.83C-70.6 -15.3 -69.68 -15.54 -68.74 -15.54C-67.14 -15.54 -66 -15.11 -65.32 -14.25L-65.32 -2.88C-65.82 -2.4 -66.45 -2.04 -67.21 -1.78C-67.97 -1.54 -68.75 -1.41 -69.55 -1.41C-70.45 -1.41 -71.28 -1.65 -72.04 -2.14C-72.8 -2.64 -73.42 -3.4 -73.89 -4.44C-74.36 -5.48 -74.59 -6.77 -74.59 -8.31C-74.59 -10.03 -74.3 -11.43 -73.71 -12.51C-73.12 -13.59 -72.38 -14.37 -71.49 -14.83Z M-43.85 -15.31C-44.84 -16.4 -46.16 -16.93 -47.82 -16.89C-49.36 -16.85 -50.74 -16.45 -51.95 -15.69C-53.16 -14.93 -54.1 -13.89 -54.78 -12.58C-55.46 -11.28 -55.8 -9.8 -55.8 -8.16C-55.8 -5.56 -55.17 -3.49 -53.91 -1.95C-52.65 -0.41 -50.88 0.36 -48.6 0.36C-47.44 0.36 -46.3 0.21 -45.18 -0.09C-44.06 -0.39 -43.24 -0.78 -42.72 -1.26L-43.2 -2.31C-43.58 -2.05 -44.22 -1.82 -45.12 -1.62C-46.02 -1.42 -46.88 -1.32 -47.7 -1.32C-49.6 -1.32 -51.07 -1.94 -52.1 -3.18C-53.13 -4.42 -53.63 -6.1 -53.61 -8.22L-42.42 -8.22C-42.28 -9.22 -42.23 -10.07 -42.27 -10.77C-42.33 -12.71 -42.86 -14.22 -43.85 -15.31ZM-51.89 -14.08C-50.96 -15.06 -49.83 -15.54 -48.51 -15.54C-47.79 -15.54 -47.15 -15.45 -46.59 -15.27C-45.27 -14.55 -44.61 -12.98 -44.61 -10.56L-44.64 -9.69L-53.55 -9.69C-53.37 -11.65 -52.82 -13.11 -51.89 -14.08Z M-33.74 -1.32L-36.29 -1.05L-36.29 0L-28.91 0L-28.91 -1.05L-31.52 -1.29L-31.52 -23.43L-32.06 -23.76L-36.14 -23.25L-36.14 -22.17L-33.74 -21.75Z M-11.7 -1.32L-13.74 -1.05L-13.74 0L-7.2 0L-7.2 -1.05L-9.45 -1.32L-9.45 -13.17C-8.61 -13.73 -7.75 -14.16 -6.88 -14.46C-6.01 -14.76 -5.24 -14.91 -4.56 -14.91C-3.64 -14.91 -2.94 -14.73 -2.46 -14.35C-1.98 -13.99 -1.65 -13.42 -1.47 -12.66C-1.29 -11.9 -1.2 -10.85 -1.2 -9.51L-1.2 -1.32L-3.42 -1.05L-3.42 0L3.3 0L3.3 -1.05L0.99 -1.29L0.99 -9.78C0.99 -11.3 0.87 -12.55 0.63 -13.53C2.33 -14.47 3.89 -14.94 5.31 -14.94C6.27 -14.94 7 -14.74 7.5 -14.34C8 -13.94 8.34 -13.34 8.52 -12.54C8.7 -11.74 8.79 -10.64 8.79 -9.24L8.79 -1.32L6.72 -1.05L6.72 0L13.5 0L13.5 -1.05L11.01 -1.32L11.01 -9.66C11.01 -11.44 10.86 -12.84 10.56 -13.86C10.26 -14.88 9.76 -15.61 9.06 -16.06C8.36 -16.51 7.4 -16.71 6.18 -16.65C5.26 -16.63 4.21 -16.42 3.03 -16C1.85 -15.59 0.92 -15.14 0.24 -14.64C-0.12 -15.4 -0.61 -15.93 -1.23 -16.24C-1.85 -16.55 -2.68 -16.69 -3.72 -16.65C-4.68 -16.63 -5.74 -16.38 -6.9 -15.9C-8.06 -15.42 -9.01 -14.89 -9.75 -14.31L-9.75 -16.32L-10.29 -16.62L-13.83 -15.66L-13.83 -14.91L-11.7 -13.98Z M18.67 0ZM29.08 -15.48C28.06 -16.26 26.7 -16.65 25 -16.65C24.18 -16.65 23.19 -16.49 22.03 -16.18C20.87 -15.88 19.96 -15.45 19.3 -14.91L19.72 -13.83C20.36 -14.17 21.11 -14.46 21.96 -14.68C22.81 -14.91 23.53 -15.03 24.13 -15.03C25.51 -15.03 26.57 -14.75 27.31 -14.19C28.05 -13.63 28.42 -12.6 28.42 -11.1L28.42 -9.69C27.02 -9.69 25.58 -9.51 24.09 -9.16C22.6 -8.82 21.32 -8.22 20.26 -7.39C19.2 -6.57 18.67 -5.48 18.67 -4.14C18.67 -3.28 18.88 -2.51 19.29 -1.83C19.7 -1.15 20.26 -0.62 20.97 -0.24C21.68 0.14 22.46 0.33 23.32 0.33C25.64 0.33 27.36 -0.35 28.48 -1.71C28.48 -1.15 28.51 -0.73 28.57 -0.46C28.63 -0.19 28.77 0 28.98 0.12C29.19 0.24 29.51 0.3 29.95 0.3C30.91 0.3 31.75 0.12 32.47 -0.24L32.47 -1.08L30.58 -1.08L30.61 -11.37C30.61 -13.33 30.1 -14.7 29.08 -15.48ZM23.23 -7.51C24.81 -8.1 26.53 -8.4 28.39 -8.4L28.36 -2.67C28 -2.33 27.48 -2 26.79 -1.68C26.1 -1.36 25.39 -1.2 24.67 -1.2C22.13 -1.2 20.86 -2.32 20.86 -4.56C20.86 -5.94 21.65 -6.92 23.23 -7.51ZM27.82 -25.89L23.41 -20.31L24.07 -19.65C26.93 -21.41 28.74 -22.88 29.5 -24.06Z M40.22 -1.32L37.67 -1.05L37.67 0L46.82 0L46.82 -1.05L42.44 -1.32L42.44 -13.32C43.72 -14.14 45.04 -14.55 46.4 -14.55C46.82 -14.55 47.19 -14.53 47.51 -14.49C47.83 -14.45 48.12 -14.38 48.38 -14.29C48.64 -14.2 48.81 -14.15 48.89 -14.13L48.89 -16.59C48.57 -16.63 48.09 -16.65 47.45 -16.65C46.55 -16.65 45.55 -16.39 44.45 -15.85C43.35 -15.33 42.58 -14.79 42.14 -14.25L42.14 -16.32L41.54 -16.62L38.06 -15.66L38.06 -14.91L40.22 -13.98Z M56.22 -1.32L54.18 -1.05L54.18 0L60.72 0L60.72 -1.05L58.47 -1.32L58.47 -13.17C59.31 -13.73 60.17 -14.16 61.04 -14.46C61.91 -14.76 62.68 -14.91 63.36 -14.91C64.28 -14.91 64.98 -14.73 65.46 -14.35C65.94 -13.99 66.27 -13.42 66.45 -12.66C66.63 -11.9 66.72 -10.85 66.72 -9.51L66.72 -1.32L64.5 -1.05L64.5 0L71.22 0L71.22 -1.05L68.91 -1.29L68.91 -9.78C68.91 -11.3 68.79 -12.55 68.55 -13.53C70.25 -14.47 71.81 -14.94 73.23 -14.94C74.19 -14.94 74.92 -14.74 75.42 -14.34C75.92 -13.94 76.26 -13.34 76.44 -12.54C76.62 -11.74 76.71 -10.64 76.71 -9.24L76.71 -1.32L74.64 -1.05L74.64 0L81.42 0L81.42 -1.05L78.93 -1.32L78.93 -9.66C78.93 -11.44 78.78 -12.84 78.48 -13.86C78.18 -14.88 77.68 -15.61 76.98 -16.06C76.28 -16.51 75.32 -16.71 74.1 -16.65C73.18 -16.63 72.13 -16.42 70.95 -16C69.77 -15.59 68.84 -15.14 68.16 -14.64C67.8 -15.4 67.31 -15.93 66.69 -16.24C66.07 -16.55 65.24 -16.69 64.2 -16.65C63.24 -16.63 62.18 -16.38 61.02 -15.9C59.86 -15.42 58.91 -14.89 58.17 -14.31L58.17 -16.32L57.63 -16.62L54.09 -15.66L54.09 -14.91L56.22 -13.98Z M98.05 -15.73C96.99 -16.51 95.67 -16.89 94.09 -16.89C92.75 -16.89 91.49 -16.54 90.3 -15.84C89.11 -15.14 88.15 -14.14 87.43 -12.85C86.71 -11.56 86.35 -10.07 86.35 -8.37C86.35 -6.79 86.6 -5.34 87.1 -4.02C87.6 -2.7 88.4 -1.64 89.49 -0.84C90.58 -0.04 91.96 0.36 93.64 0.36C95 0.36 96.25 -0.01 97.39 -0.76C98.53 -1.51 99.44 -2.55 100.11 -3.88C100.78 -5.21 101.12 -6.72 101.14 -8.4C101.14 -9.96 100.89 -11.38 100.39 -12.66C99.89 -13.94 99.11 -14.96 98.05 -15.73ZM89.95 -13.77C90.79 -14.97 92.04 -15.57 93.7 -15.57C95.38 -15.57 96.65 -14.89 97.5 -13.54C98.35 -12.19 98.77 -10.43 98.77 -8.25C98.77 -5.87 98.37 -4.07 97.57 -2.86C96.77 -1.66 95.54 -1.05 93.88 -1.05C92.18 -1.05 90.89 -1.77 90.01 -3.21C89.13 -4.65 88.69 -6.47 88.69 -8.67C88.69 -10.87 89.11 -12.57 89.95 -13.77Z M109.62 -1.32L107.07 -1.05L107.07 0L114.45 0L114.45 -1.05L111.84 -1.29L111.84 -23.43L111.3 -23.76L107.22 -23.25L107.22 -22.17L109.62 -21.75Z M129.23 -15.09L130.73 -14.79L130.73 -6.87C130.75 -5.13 130.84 -3.79 131 -2.86C131.16 -1.93 131.58 -1.17 132.26 -0.58C132.94 0.01 134.01 0.3 135.47 0.3C137.41 0.3 139.32 -0.48 141.2 -2.04L141.2 -0.69C141.2 0.07 141.66 0.45 142.58 0.45C142.94 0.45 143.35 0.4 143.82 0.28C144.29 0.17 144.68 0.05 144.98 -0.09L144.98 -1.08L143.15 -1.08L143.15 -16.41L142.79 -16.65L139.16 -15.96L139.16 -14.97L140.99 -14.67L140.99 -3.3C140.59 -2.9 139.95 -2.48 139.07 -2.04C138.19 -1.6 137.29 -1.38 136.37 -1.38C135.43 -1.38 134.71 -1.55 134.22 -1.89C133.73 -2.23 133.4 -2.74 133.22 -3.43C133.04 -4.12 132.95 -5.09 132.95 -6.33L132.95 -16.38L132.5 -16.65L129.23 -16.02Z M152.88 -1.29L150.81 -1.05L150.81 0L157.41 0L157.41 -1.05L155.13 -1.32L155.13 -13.17C155.97 -13.75 156.81 -14.19 157.66 -14.49C158.51 -14.79 159.32 -14.94 160.08 -14.94C161 -14.94 161.71 -14.74 162.21 -14.35C162.71 -13.96 163.06 -13.36 163.26 -12.55C163.46 -11.74 163.56 -10.67 163.56 -9.33L163.56 -1.32L161.31 -1.05L161.31 0L168.15 0L168.15 -1.05L165.78 -1.29L165.78 -9.72C165.78 -11.46 165.62 -12.84 165.3 -13.87C164.98 -14.91 164.46 -15.64 163.74 -16.09C163.02 -16.54 162.05 -16.74 160.83 -16.68C159.89 -16.66 158.83 -16.4 157.66 -15.91C156.49 -15.43 155.55 -14.89 154.83 -14.31L154.83 -16.32L154.26 -16.62L150.75 -15.66L150.75 -14.91L152.88 -13.98Z M193.43 -15.48C192.41 -16.26 191.05 -16.65 189.35 -16.65C188.53 -16.65 187.54 -16.49 186.38 -16.18C185.22 -15.88 184.31 -15.45 183.65 -14.91L184.07 -13.83C184.71 -14.17 185.46 -14.46 186.31 -14.68C187.16 -14.91 187.88 -15.03 188.48 -15.03C189.86 -15.03 190.92 -14.75 191.66 -14.19C192.4 -13.63 192.77 -12.6 192.77 -11.1L192.77 -9.69C191.37 -9.69 189.93 -9.51 188.44 -9.16C186.95 -8.82 185.67 -8.22 184.61 -7.39C183.55 -6.57 183.02 -5.48 183.02 -4.14C183.02 -3.28 183.23 -2.51 183.64 -1.83C184.05 -1.15 184.61 -0.62 185.32 -0.24C186.03 0.14 186.81 0.33 187.67 0.33C189.99 0.33 191.71 -0.35 192.83 -1.71C192.83 -1.15 192.86 -0.73 192.92 -0.46C192.98 -0.19 193.12 0 193.33 0.12C193.54 0.24 193.86 0.3 194.3 0.3C195.26 0.3 196.1 0.12 196.82 -0.24L196.82 -1.08L194.93 -1.08L194.96 -11.37C194.96 -13.33 194.45 -14.7 193.43 -15.48ZM187.58 -7.51C189.16 -8.1 190.88 -8.4 192.74 -8.4L192.71 -2.67C192.35 -2.33 191.83 -2 191.14 -1.68C190.45 -1.36 189.74 -1.2 189.02 -1.2C186.48 -1.2 185.21 -2.32 185.21 -4.56C185.21 -5.94 186 -6.92 187.58 -7.51Z M204.57 -1.32L202.02 -1.05L202.02 0L211.17 0L211.17 -1.05L206.79 -1.32L206.79 -13.32C208.07 -14.14 209.39 -14.55 210.75 -14.55C211.17 -14.55 211.54 -14.53 211.86 -14.49C212.18 -14.45 212.47 -14.38 212.73 -14.29C212.99 -14.2 213.16 -14.15 213.24 -14.13L213.24 -16.59C212.92 -16.63 212.44 -16.65 211.8 -16.65C210.9 -16.65 209.9 -16.39 208.8 -15.85C207.7 -15.33 206.93 -14.79 206.49 -14.25L206.49 -16.32L205.89 -16.62L202.41 -15.66L202.41 -14.91L204.57 -13.98Z M222.7 -16.38L222.7 -20.31L221.53 -20.31C221.51 -20.07 221.42 -19.57 221.26 -18.79C221.1 -18.02 220.95 -17.41 220.81 -16.95C220.65 -16.61 220.47 -16.39 220.27 -16.29C220.07 -16.19 219.69 -16.08 219.13 -15.96L218.23 -15.75L218.23 -14.82L220.51 -14.82L220.51 -3.66C220.51 -2.26 220.79 -1.24 221.34 -0.6C221.89 0.04 222.68 0.36 223.72 0.36C224.44 0.36 225.25 0.22 226.15 -0.04C227.05 -0.31 227.69 -0.66 228.07 -1.08L227.68 -2.22C227.42 -2.04 226.97 -1.85 226.32 -1.65C225.67 -1.45 225.06 -1.35 224.5 -1.35C223.94 -1.35 223.54 -1.48 223.29 -1.74C223.04 -2 222.87 -2.47 222.79 -3.16C222.71 -3.85 222.67 -4.99 222.67 -6.57L222.67 -14.82L227.89 -14.82L227.89 -16.38Z M245.02 -15.31C244.03 -16.4 242.7 -16.93 241.04 -16.89C239.5 -16.85 238.13 -16.45 236.92 -15.69C235.71 -14.93 234.76 -13.89 234.08 -12.58C233.4 -11.28 233.06 -9.8 233.06 -8.16C233.06 -5.56 233.69 -3.49 234.95 -1.95C236.21 -0.41 237.98 0.36 240.26 0.36C241.42 0.36 242.56 0.21 243.68 -0.09C244.8 -0.39 245.62 -0.78 246.14 -1.26L245.66 -2.31C245.28 -2.05 244.64 -1.82 243.74 -1.62C242.84 -1.42 241.98 -1.32 241.16 -1.32C239.26 -1.32 237.8 -1.94 236.77 -3.18C235.74 -4.42 235.23 -6.1 235.25 -8.22L246.44 -8.22C246.58 -9.22 246.63 -10.07 246.59 -10.77C246.53 -12.71 246.01 -14.22 245.02 -15.31ZM236.98 -14.08C237.91 -15.06 239.03 -15.54 240.35 -15.54C241.07 -15.54 241.71 -15.45 242.27 -15.27C243.59 -14.55 244.25 -12.98 244.25 -10.56L244.22 -9.69L235.31 -9.69C235.49 -11.65 236.05 -13.11 236.98 -14.08Z"/></g></g></svg>