<svg xmlns="http://www.w3.org/2000/svg" width="500" viewBox="0 0 375 375" height="500" version="1.0"><path fill="#fff" d="M-37.5-37.5h450v450h-450z"/><path fill="#fff" d="M-37.5-37.5h450v450h-450z"/><path d="M113.768 141.62v3.078h-9.781v38.547h32.406v-38.547h-9.781v-3.078h43.031v3.078H157.91v85.343h11.734v3.079h-43.031v-3.079h9.781v-43.718h-32.406v43.718h9.781v3.079H70.737v-3.079h11.734v-85.343H70.737v-3.078ZM253.022 141.62c6.52 0 12.297.328 17.328.984 5.031.648 9.406 2.09 13.125 4.328 2.707 1.586 4.847 3.516 6.422 5.797 1.582 2.281 2.375 5.055 2.375 8.312 0 3.262-.746 6.012-2.235 8.25-1.492 2.23-3.68 4.278-6.562 6.141-2.7 1.773-5.68 3.148-8.938 4.125-3.261.969-7.125 1.781-11.593 2.438v.843c1.957.367 4.05.856 6.28 1.469a75.826 75.826 0 0 1 6.704 2.156 56.163 56.163 0 0 1 6.422 2.86c2.05 1.074 3.867 2.308 5.453 3.703 2.8 2.43 4.734 4.992 5.797 7.687 1.07 2.7 1.61 5.262 1.61 7.688 0 3.262-.7 6.383-2.095 9.36-1.398 2.98-3.214 5.491-5.453 7.53-2.136 1.961-4.437 3.454-6.906 4.485a39.279 39.279 0 0 1-7.687 2.297 52.474 52.474 0 0 1-8.172.906c-2.793.094-5.493.14-8.094.14h-48.344v-3.078h11.735v-85.343h-11.735v-3.078Zm-2.375 88.421c5.218 0 9.062-.53 11.53-1.593 2.47-1.07 4.259-2.446 5.376-4.125 1.488-2.051 2.394-4.192 2.719-6.422.332-2.238.5-4.102.5-5.594v-9.781c0-2.32-.235-4.738-.703-7.25-.47-2.52-1.633-4.758-3.485-6.719a12.111 12.111 0 0 0-3.5-2.64 21.864 21.864 0 0 0-3.984-1.547c-1.344-.375-2.602-.61-3.766-.704a37.194 37.194 0 0 0-2.86-.14H241.71v46.515Zm.984-49.578c1.77 0 3.816-.207 6.14-.625 2.333-.425 4.567-1.57 6.704-3.437 1.863-1.582 3.004-3.188 3.422-4.813.425-1.633.64-3.242.64-4.828v-9.219c0-2.507-.562-4.738-1.687-6.687-1.117-1.957-2.7-3.453-4.75-4.484-1.586-.832-3.328-1.317-5.235-1.454a69.778 69.778 0 0 0-5.234-.218h-9.922v35.765Zm0 0"/><path fill="none" d="M187.5 235.344v-92.38" stroke="#000" stroke-width="1.5"/><path stroke-linecap="round" fill="none" stroke-linejoin="round" d="M185.25 235.719h4.5M185.25 142.59h4.5" stroke="#000" stroke-width="1.5"/></svg>